<?xml version="1.0" encoding="UTF-8"?>
<svg version="1.1" xmlns="http://www.w3.org/2000/svg" width="504" height="504">
<path d="M0 0 C166.32 0 332.64 0 504 0 C504 166.32 504 332.64 504 504 C337.68 504 171.36 504 0 504 C0 337.68 0 171.36 0 0 Z " fill="#FCFCFC" transform="translate(0,0)"/>
<path d="M0 0 C166.32 0 332.64 0 504 0 C504 166.32 504 332.64 504 504 C337.68 504 171.36 504 0 504 C0 337.68 0 171.36 0 0 Z M193 27 C191.88206055 27.33692871 190.76412109 27.67385742 189.61230469 28.02099609 C180.21426974 30.90457524 171.01147186 34.06383791 162 38 C160.42750666 38.60656734 158.85455058 39.21193578 157.28125 39.81640625 C131.61626445 50.05623149 108.06954495 67.10730922 89 87 C84 92 84 92 82.45703125 93.47265625 C72.45194147 103.15721684 64.66625685 114.45310887 57 126 C55.98292969 127.50240234 55.98292969 127.50240234 54.9453125 129.03515625 C41.7208737 149.42054634 32.25364531 172.26973673 27.42480469 196.01953125 C26.86564476 198.62637338 26.15322312 201.18225106 25.4375 203.75 C21.70009017 218.90499151 20.72190072 234.01577961 20.75 249.5625 C20.75077545 250.28230042 20.7515509 251.00210083 20.75234985 251.74371338 C20.79419175 265.1388518 21.54158145 278.11417935 24.3125 291.25 C24.53325195 292.3239502 24.75400391 293.39790039 24.98144531 294.50439453 C27.92143274 309.39813881 27.92143274 309.39813881 32 324 C32.66 324 33.32 324 34 324 C34.061875 324.9075 34.12375 325.815 34.1875 326.75 C35.58020698 336.27001069 41.0010285 345.2010985 45.3515625 353.67578125 C47.03768853 357.07600223 48.5360173 360.49975046 50 364 C50.66 364 51.32 364 52 364 C52.20496094 364.80050781 52.40992187 365.60101563 52.62109375 366.42578125 C54.45498365 371.17934856 57.15364507 375.02710343 60.0625 379.1875 C60.6488623 380.03320557 61.23522461 380.87891113 61.83935547 381.75024414 C69.40929247 392.56992252 77.91425622 402.4315109 87 412 C87.50547363 412.53415527 88.01094727 413.06831055 88.53173828 413.61865234 C100.64725601 426.33106804 114.13593075 436.68911012 129 446 C129.70721191 446.4434375 130.41442383 446.886875 131.14306641 447.34375 C152.99308648 460.87567358 178.30212397 472.71352279 204 476 C205.58601556 476.32032827 207.16945506 476.6536862 208.75 477 C221.49232248 479.55541072 234.03096665 480.32648924 246.99072266 480.26074219 C249.49796715 480.2500087 252.00449553 480.26071793 254.51171875 480.2734375 C271.4881442 480.28905308 287.8267756 477.77255305 304.46386719 474.49707031 C306.00433313 474.19514611 307.54633131 473.90073663 309.09082031 473.62011719 C345.09738314 467.00057819 380.19069847 444.27921623 406.7890625 419.98828125 C408.55080083 418.4039618 410.33088787 416.90609002 412.1875 415.4375 C415.13733958 412.88097236 417.58505274 410.16990516 420.10546875 407.19921875 C421.36667676 405.73517729 422.66154543 404.29946368 423.98828125 402.89453125 C441.54434976 384.79464976 441.54434976 384.79464976 451 363 C451.66 363 452.32 363 453 363 C453.40476562 362.03449219 453.80953125 361.06898438 454.2265625 360.07421875 C456.1475679 355.59149747 458.26432451 351.20819189 460.375 346.8125 C463.7963299 339.63088919 467.18914234 332.44774695 470 325 C470.22123535 324.43176514 470.4424707 323.86353027 470.67041016 323.27807617 C473.30663616 316.026268 474.68039953 308.46795126 476.16210938 300.91674805 C476.62356635 298.56979149 477.09627121 296.22530272 477.5703125 293.88085938 C477.87307028 292.35950906 478.17517521 290.83802865 478.4765625 289.31640625 C478.61510651 288.63067032 478.75365051 287.94493439 478.89639282 287.23841858 C480.5988925 278.47798143 481.1597452 269.75968761 481.203125 260.84765625 C481.20882507 259.9080455 481.21452515 258.96843475 481.22039795 258.00035095 C481.22978213 256.02132265 481.23635548 254.04227918 481.24023438 252.06323242 C481.24987436 249.10110677 481.28093468 246.139696 481.3125 243.17773438 C481.41007989 225.92483558 479.04534015 209.78411977 474.8125 193.0625 C474.51061768 191.86939209 474.20873535 190.67628418 473.89770508 189.44702148 C471.35547706 179.74536843 468.16602662 170.53582735 464.06689453 161.38769531 C462.98033398 158.95598772 461.94216542 156.50668968 460.90234375 154.0546875 C452.01054852 133.73086306 439.03459921 114.30197865 424 98 C422.90751953 96.7315625 422.90751953 96.7315625 421.79296875 95.4375 C412.93794701 85.22630376 402.77427642 76.14128233 392 68 C391.04738281 67.2678125 390.09476562 66.535625 389.11328125 65.78125 C369.42589539 49.97073639 369.42589539 49.97073639 347 42 C347 41.34 347 40.68 347 40 C346.23042969 39.74347656 345.46085937 39.48695312 344.66796875 39.22265625 C342.94513672 38.64837891 342.94513672 38.64837891 341.1875 38.0625 C340.54385498 37.84867676 339.90020996 37.63485352 339.23706055 37.41455078 C334.62442555 35.88067034 330.017853 34.32977045 325.4140625 32.76953125 C323.04688356 31.97132877 320.67969601 31.17315184 318.3125 30.375 C317.18545654 29.99093994 316.05841309 29.60687988 314.8972168 29.21118164 C292.88983403 21.81116507 271.72286869 20.52841375 248.625 20.5 C247.48003052 20.49798584 246.33506104 20.49597168 245.15539551 20.49389648 C227.02894905 20.51540255 210.42487681 21.65888458 193 27 Z " fill="#FEFEFE" transform="translate(0,0)"/>
<path d="M0 0 C3.20169515 0.35574391 3.99280341 0.99161161 6.15087891 3.50708008 C9.70751492 6.6190604 12.38155246 6.74316644 16.8984375 6.69921875 C17.65162262 6.70637405 18.40480774 6.71352936 19.18081665 6.72090149 C20.76929547 6.72866145 22.35788135 6.7237022 23.94628906 6.70678711 C26.36210198 6.68760243 28.77212169 6.7269102 31.1875 6.77148438 C40.4522485 7.09247332 40.4522485 7.09247332 48.3515625 2.89453125 C49.22554688 1.93933594 50.09953125 0.98414063 51 0 C53.08642578 0.21850586 53.08642578 0.21850586 55 1 C58.69403181 5.69734909 59.21210159 11.03141035 59.109375 16.828125 C59.09358398 17.98731445 59.07779297 19.14650391 59.06152344 20.34082031 C59.0412207 21.21834961 59.02091797 22.09587891 59 23 C78.46315878 23.23414637 97.92602973 23.41020818 117.39030743 23.51812172 C126.42906104 23.56957184 135.46693694 23.63964821 144.50512695 23.75439453 C152.38771537 23.85442151 160.26966785 23.91866493 168.15287334 23.94088495 C172.32302533 23.95386399 176.49135894 23.98411331 180.66092491 24.05730057 C184.59561255 24.1257976 188.5277549 24.14599661 192.46298218 24.13107681 C193.89767673 24.13380101 195.33246711 24.15333323 196.76664162 24.19205475 C207.07592163 24.45645899 212.70214282 22.11301421 220.18275166 15.46001244 C224.11188355 12.02910676 228.38258946 9.68266831 233 7.3125 C234.20849609 6.65217773 234.20849609 6.65217773 235.44140625 5.97851562 C241.15927636 2.98770218 241.15927636 2.98770218 244.9375 3.04296875 C247 4 247 4 249 7 C252.12661183 19.93716038 252.38297801 32.74413202 252.2109375 45.98046875 C252.19640746 47.98698493 252.18329074 49.99351176 252.17147827 52.00004578 C252.14408841 56.20521202 252.10751432 60.41015025 252.06335449 64.61517334 C251.99837078 70.87831027 251.95993734 77.14141008 251.92675781 83.40478516 C251.86827623 93.9135762 251.78079817 104.42193197 251.68261719 114.93041992 C251.64320688 119.17974523 251.60853259 123.42906767 251.578125 127.6784668 C251.41307506 150.50307745 251.0948023 173.31805289 250.26655197 196.12947655 C250.18837968 198.30591572 250.11464622 200.48251926 250.0455513 202.65926552 C249.94782962 205.66447603 249.83115212 208.66832449 249.70849609 211.67260742 C249.68221004 212.56271955 249.655924 213.45283169 249.6288414 214.36991692 C249.47338607 217.73747136 249.23777192 220.42603905 247.94172668 223.55458069 C244.92104448 225.80317336 241.83758813 225.52370709 238.22387695 225.45410156 C237.03816101 225.45497772 237.03816101 225.45497772 235.82849121 225.45587158 C233.21464177 225.45308393 230.60193154 225.42196098 227.98828125 225.390625 C226.17653527 225.383165 224.36478122 225.37747093 222.55302429 225.37347412 C217.78361752 225.35819873 213.01469771 225.31890063 208.2454834 225.2746582 C203.37921741 225.23374649 198.51287276 225.21547188 193.64648438 225.1953125 C184.09744225 225.15240813 174.54876161 225.08413384 165 225 C165.59182569 221.28390276 166.30439576 217.86090688 167.53125 214.3046875 C169.2015203 208.8600137 169.51603623 203.79380697 169.5 198.125 C169.52835938 197.22136719 169.55671875 196.31773437 169.5859375 195.38671875 C169.60471265 188.76847874 167.93500441 184.0642912 165.22509766 178.07666016 C163.16558433 172.9044826 162.59325595 167.62374966 161.9375 162.125 C161.78176514 160.94059326 161.62603027 159.75618652 161.46557617 158.53588867 C161.04997501 155.36150914 160.64840261 152.18574079 160.25256348 149.0088501 C159.55327528 143.44682195 158.81289654 137.89003723 158.0774231 132.33270264 C157.81530823 130.33391447 157.56022454 128.33432817 157.30639648 126.33447266 C157.14985596 125.12710449 156.99331543 123.91973633 156.83203125 122.67578125 C156.69514893 121.60239502 156.5582666 120.52900879 156.41723633 119.4230957 C156.24976984 117.0574833 156.24976984 117.0574833 155 116 C152.70674373 115.4329266 152.70674373 115.4329266 150 116 C147.84486438 117.86435887 146.05494202 119.64556247 144.17578125 121.7578125 C143.05377478 122.95280063 141.93069359 124.14678043 140.80664062 125.33984375 C139.0536108 127.22915758 137.31153128 129.12607721 135.58813477 131.04248047 C125.90876558 141.73964037 125.90876558 141.73964037 121.11474609 142.39355469 C118.51513627 141.87411458 116.41283785 141.07954683 114 140 C108.51209822 138.64088768 103.05943549 138.80906492 97.4375 138.8125 C95.82137817 138.8115332 95.82137817 138.8115332 94.17260742 138.81054688 C87.69529244 138.85366691 81.60560689 139.16097175 75.26953125 140.5625 C71.87575129 141.21672264 69.14456599 141.73918011 66.13818359 139.79760742 C65.56406738 139.23920166 64.98995117 138.6807959 64.3984375 138.10546875 C63.42342285 137.17359741 63.42342285 137.17359741 62.42871094 136.22290039 C61.75098633 135.55121826 61.07326172 134.87953613 60.375 134.1875 C59.67149414 133.51130615 58.96798828 132.8351123 58.24316406 132.13842773 C54.98970842 128.99661027 51.79234236 125.8060107 48.6484375 122.5546875 C48.1529541 122.04526611 47.6574707 121.53584473 47.14697266 121.01098633 C45.83019215 119.64564925 44.53164466 118.26279485 43.234375 116.87890625 C40.97632025 114.57093338 40.97632025 114.57093338 37 115 C36.86424561 115.98581055 36.72849121 116.97162109 36.58862305 117.98730469 C36.39635593 119.38216619 36.20405131 120.77702252 36.01171875 122.171875 C35.90898651 122.91715454 35.80625427 123.66243408 35.70040894 124.43029785 C35.13337752 128.53846841 34.56278891 132.64610525 33.98608398 136.75292969 C33.75373152 138.40820145 33.52139095 140.06347487 33.2890625 141.71875 C33.17456253 142.53394104 33.06006256 143.34913208 32.9420929 144.18902588 C32.33247134 148.54952299 31.7504801 152.91140081 31.2109375 157.28125 C30.00948665 166.69099184 27.96475885 175.03955813 24.3046875 183.8125 C20.05305498 194.19972197 20.9164461 206.06695118 25.02734375 216.3515625 C26.08311841 219.22632243 26.53203175 221.97992699 27 225 C16.60384149 225.02313662 6.20768907 225.04092185 -4.18848991 225.05181217 C-9.01548037 225.0570381 -13.84245325 225.06413052 -18.66943359 225.07543945 C-23.32485248 225.0862786 -27.98025444 225.09227903 -32.63568497 225.09487724 C-34.41474804 225.09672963 -36.19381016 225.1003467 -37.97286606 225.10573006 C-40.45833107 225.11295409 -42.94372546 225.11399036 -45.42919922 225.11352539 C-46.17006775 225.11712067 -46.91093628 225.12071594 -47.67425537 225.12442017 C-52.77189568 225.11405216 -52.77189568 225.11405216 -55 224 C-55.98114595 205.88190607 -56.33000404 187.76515568 -56.5625 169.625 C-56.57269291 168.8520396 -56.58288582 168.07907921 -56.5933876 167.28269577 C-57.00010048 136.37970988 -57.13743631 105.47580929 -57.18122482 74.57036591 C-57.18748216 71.07247129 -57.19738572 67.57460419 -57.20828247 64.07672119 C-57.22496221 58.52194873 -57.23109019 52.96725853 -57.22925949 47.41246223 C-57.23005435 45.3568487 -57.23415973 43.3012333 -57.24187088 41.24563408 C-57.34237694 12.32103507 -57.34237694 12.32103507 -52 5 C-46.36830639 2.97298971 -41.96882017 5.69714516 -36.86328125 8.0390625 C-29.98858061 11.40719266 -22.43154705 15.56845295 -17 21 C-13.87803664 21.46486718 -13.87803664 21.46486718 -10.375 21.625 C-8.59222656 21.73714844 -8.59222656 21.73714844 -6.7734375 21.8515625 C-5.85820312 21.90054688 -4.94296875 21.94953125 -4 22 C-4.04640625 20.99839844 -4.0928125 19.99679688 -4.140625 18.96484375 C-4.5621892 5.84530491 -4.5621892 5.84530491 0 0 Z " fill="#030303" transform="translate(155,137)"/>
<path d="M0 0 C4.96999544 24.84997721 2 50.65789626 2 76 C-95.02 76 -192.04 76 -292 76 C-292 12 -292 12 -289 1 C-279.79194208 2.22774106 -271.93434249 6.74188701 -265.60827637 13.58854675 C-260.92771425 17.4636138 -255.1638077 16.74774407 -249.37304688 16.7512207 C-248.09444668 16.77141266 -246.81584648 16.79160461 -245.49850082 16.81240845 C-241.97796461 16.86730066 -238.45779384 16.8915979 -234.93690586 16.9106257 C-231.18677818 16.93624845 -227.43705315 16.99044447 -223.68719482 17.0410614 C-215.62440873 17.14459258 -207.56157263 17.21283258 -199.49836731 17.27368164 C-194.51248673 17.31152257 -189.52669312 17.35683146 -184.54089355 17.40405273 C-183.7183207 17.41180792 -182.89574784 17.41956311 -182.04824853 17.4275533 C-180.38608762 17.44322796 -178.72392683 17.45891467 -177.06176615 17.47461343 C-166.30782484 17.57572034 -155.55387786 17.67115562 -144.79974365 17.7492981 C-127.23443553 17.87936532 -109.67886088 18.11393808 -92.11758423 18.53450584 C-86.17567744 18.66908191 -80.23307176 18.7653631 -74.29034424 18.85569859 C-69.88024602 18.92525625 -65.47370703 19.01814969 -61.06567383 19.17178345 C-41.53547167 19.83659713 -27.57772636 18.98086423 -12.05310059 5.62646484 C-8.69465264 2.96590474 -4.38622268 0 0 0 Z " fill="#F8F8F8" transform="translate(397,148)"/>
<path d="M0 0 C1.11311554 0.00146027 2.22623108 0.00292053 3.37307739 0.00442505 C20.75854101 0.07473503 38.52148758 0.17918651 55.3125 5.1875 C56.21726074 5.44515137 57.12202148 5.70280273 58.05419922 5.96826172 C66.8890202 8.53747005 75.55090918 11.58624511 84.19824219 14.72021484 C88.89365316 16.40226315 93.63499074 17.94889941 98.375 19.5 C98.375 20.16 98.375 20.82 98.375 21.5 C99.02597656 21.5721875 99.67695313 21.644375 100.34765625 21.71875 C104.5699983 22.80838666 108.03859459 24.8519181 111.8125 27 C112.60873779 27.44923828 113.40497559 27.89847656 114.2253418 28.36132812 C165.14146382 57.35431061 206.2059913 104.35167309 223.14892578 161.09179688 C224.10430938 164.68456713 224.9136753 168.29379854 225.6484375 171.9375 C226.27091855 174.98966516 227.03854181 177.89663346 227.9375 180.875 C231.91660618 195.40940753 232.86578164 210.00960441 232.76611328 225.00585938 C232.75004845 227.86637306 232.76606033 230.72546641 232.78515625 233.5859375 C232.80667248 251.27995945 230.39495381 268.33655386 226.4375 285.5625 C226.19837891 286.65498047 225.95925781 287.74746094 225.71289062 288.87304688 C223.45924356 298.88066695 220.63412245 308.47534677 215.87109375 317.5859375 C213.88575876 321.45293463 212.03670409 325.37897396 210.1875 329.3125 C209.84235352 330.04235107 209.49720703 330.77220215 209.14160156 331.52416992 C207.4391646 335.14455802 205.80719745 338.76159742 204.375 342.5 C203.715 342.5 203.055 342.5 202.375 342.5 C201.98441406 343.81871094 201.98441406 343.81871094 201.5859375 345.1640625 C196.3169041 359.67939968 182.95285365 374.08718291 172.48046875 385.2421875 C170.81147401 387.03194439 169.26234333 388.83068056 167.75 390.75 C165.2226136 393.67644741 162.52747883 396.09898638 159.5859375 398.59765625 C157.26958979 400.59069748 155.04792248 402.6668239 152.8125 404.75 C134.68200767 421.03156845 113.47677769 432.56444487 91.375 442.5 C90.54274902 442.88317383 89.71049805 443.26634766 88.85302734 443.66113281 C61.766933 456.01851 31.2026898 459.71970669 1.6875 459.75 C0.39865402 459.75250763 0.39865402 459.75250763 -0.91622925 459.75506592 C-33.72119396 459.75888325 -33.72119396 459.75888325 -48.625 454.5 C-50.16182894 454.24036508 -51.70415595 454.01154681 -53.25 453.8125 C-65.28063124 451.73598009 -77.31245898 446.86825774 -88.27734375 441.59765625 C-90.59010721 440.51631427 -92.91698844 439.63006438 -95.3125 438.75 C-113.48543272 431.5380645 -130.98469843 419.32499848 -145.625 406.5 C-146.41519531 405.819375 -147.20539063 405.13875 -148.01953125 404.4375 C-162.14053554 392.0274413 -174.28812592 378.54275095 -185.375 363.375 C-186.19013062 362.26463379 -186.19013062 362.26463379 -187.02172852 361.13183594 C-196.625 347.81159777 -196.625 347.81159777 -196.625 343.5 C-197.285 343.5 -197.945 343.5 -198.625 343.5 C-199.12 342.365625 -199.615 341.23125 -200.125 340.0625 C-201.87691507 336.10817742 -203.70949695 332.19714475 -205.56640625 328.29150391 C-214.625 309.21748155 -214.625 309.21748155 -214.625 303.5 C-215.285 303.5 -215.945 303.5 -216.625 303.5 C-218.69584529 295.67119464 -220.46918042 287.78739512 -222.1875 279.875 C-222.39721436 278.91005615 -222.60692871 277.9451123 -222.82299805 276.95092773 C-223.23390388 275.04726413 -223.64075268 273.14272011 -224.04345703 271.23730469 C-224.41340986 269.49594822 -224.79348209 267.75668806 -225.18701172 266.02050781 C-227.83784284 253.8722956 -227.86322544 241.4448396 -227.875 229.0625 C-227.87600708 228.32010071 -227.87701416 227.57770142 -227.87805176 226.81280518 C-227.86262176 209.89562598 -226.12304708 193.6687569 -221.63671875 177.32421875 C-220.77910354 174.08249947 -220.0848645 170.84941538 -219.42919922 167.56274414 C-214.17189992 142.2960082 -200.67735997 117.29373442 -185.625 96.5 C-185.02437744 95.6661377 -185.02437744 95.6661377 -184.41162109 94.81542969 C-176.70722101 84.22226743 -167.89365299 74.73918191 -158.625 65.5 C-157.820625 64.66082031 -157.01625 63.82164063 -156.1875 62.95703125 C-149.51335399 56.06923117 -142.39269948 50.12540869 -134.625 44.5 C-134.04717773 44.07251465 -133.46935547 43.6450293 -132.87402344 43.20458984 C-124.34286806 36.91688139 -115.43498442 31.56175972 -106.125 26.5 C-105.11010498 25.94787842 -104.09520996 25.39575684 -103.04956055 24.8269043 C-98.32964817 22.30886398 -93.68128691 19.97745225 -88.62963867 18.20947266 C-86.29210476 17.38218322 -84.00425809 16.45667898 -81.70703125 15.5234375 C-73.13576458 12.08578989 -64.47619012 9.13576973 -55.625 6.5 C-54.64853516 6.20206543 -53.67207031 5.90413086 -52.66601562 5.59716797 C-35.16387226 0.49284695 -18.11603957 -0.03715931 0 0 Z M-67.625 22.5 C-69.13151123 23.03874756 -69.13151123 23.03874756 -70.66845703 23.58837891 C-94.6237538 32.31678121 -116.82945508 44.2387527 -136.046875 61.13818359 C-138.3519818 63.12733671 -140.77142329 64.96089359 -143.1875 66.8125 C-146.81359221 69.70373632 -149.78849413 72.77122018 -152.73828125 76.33984375 C-154.9343216 78.85415081 -157.32397316 81.08200205 -159.75 83.375 C-167.08395442 90.62813949 -172.82612748 99.00288493 -178.625 107.5 C-179.62853516 108.96953125 -179.62853516 108.96953125 -180.65234375 110.46875 C-196.6415049 134.84751806 -206.57839806 161.06875552 -212.625 189.5 C-212.83898437 190.46292969 -213.05296875 191.42585937 -213.2734375 192.41796875 C-221.04436012 228.73858534 -216.95999763 273.8399308 -201.51098633 307.51928711 C-200.50756347 309.76254135 -199.73773591 312.03208047 -199 314.375 C-191.49937875 335.24882194 -178.40417266 355.10769132 -163.625 371.5 C-162.54115246 372.79123522 -161.45775931 374.08285212 -160.375 375.375 C-151.34821352 385.59523181 -141.50902991 395.27957235 -130.625 403.5 C-129.59503906 404.28503906 -128.56507813 405.07007813 -127.50390625 405.87890625 C-109.48703701 419.3272974 -85.50875287 434.79517454 -63 438.4375 C-58.76667875 439.21371761 -54.69443459 440.29466709 -50.5625 441.5 C-45.27045604 443.03971107 -40.03359791 444.44878208 -34.625 445.5 C-33.38242432 445.75233398 -33.38242432 445.75233398 -32.11474609 446.00976562 C-21.38497437 447.93668612 -10.68362318 447.89511267 0.1875 447.875 C1.18744995 447.87512085 2.1873999 447.8752417 3.21765137 447.87536621 C18.34616736 447.84930451 32.6051297 446.98282478 47.375 443.5 C48.89764693 443.18109755 50.42107086 442.86587858 51.9453125 442.5546875 C56.12884053 441.67359979 60.25270443 440.63137455 64.375 439.5 C65.03467773 439.32339844 65.69435547 439.14679688 66.37402344 438.96484375 C99.69096735 429.77174587 129.5414081 410.05521825 154.375 386.5 C154.87821777 386.02546387 155.38143555 385.55092773 155.89990234 385.06201172 C163.35524708 377.98554909 169.92073561 370.48364835 176.06787109 362.24707031 C177.31758103 360.57674451 178.58898041 358.92502836 179.86328125 357.2734375 C188.78210975 345.48220333 195.43429925 332.27260648 202.1328125 319.13671875 C202.52742676 318.36287842 202.92204102 317.58903809 203.32861328 316.79174805 C204.77252527 313.62935844 205.70706904 310.39489947 206.6328125 307.05078125 C207.40602113 304.39338526 208.33464064 301.83867419 209.3125 299.25 C212.89811156 289.4747776 215.47162667 279.56034859 217.5625 269.375 C217.72943359 268.57650635 217.89636719 267.7780127 218.06835938 266.95532227 C223.22783612 240.85803068 223.11095875 209.20883068 216.375 183.5 C216.1176709 182.50774414 215.8603418 181.51548828 215.59521484 180.49316406 C210.66521141 161.9110656 204.41638221 144.46135268 195.375 127.5 C195.02034668 126.82936523 194.66569336 126.15873047 194.30029297 125.46777344 C185.28070476 108.53220835 174.2209516 92.945984 160.41796875 79.546875 C158.64133064 77.76683987 157.06909843 75.96024904 155.5 74 C151.41820279 69.13539236 146.3519689 65.40086752 141.375 61.5 C140.38371094 60.70464844 139.39242188 59.90929687 138.37109375 59.08984375 C130.38038274 52.77928224 122.01644729 47.18573636 113.39550781 41.77319336 C112.02396616 40.90893651 110.65888566 40.03435718 109.29980469 39.15063477 C105.38567915 36.63009054 101.65952028 34.63403921 97.25 33.0625 C92.57515278 31.34245817 87.99906754 29.50176533 83.4375 27.5 C81.08509529 26.49586218 78.73097118 25.49574118 76.375 24.5 C75.36953125 24.06558594 74.3640625 23.63117187 73.328125 23.18359375 C61.20197226 18.37234658 48.20224812 16.54180735 35.375 14.5 C34.22209473 14.31018555 33.06918945 14.12037109 31.88134766 13.92480469 C21.44971136 12.35154563 11.15854812 12.10087263 0.625 12.125 C-0.27141205 12.12554382 -1.1678241 12.12608765 -2.09140015 12.12664795 C-24.67261189 12.1893589 -46.29517841 14.7623699 -67.625 22.5 Z " fill="#0A0A0A" transform="translate(248.625,20.5)"/>
<path d="M0 0 C2.62181866 0.5093269 5.24621523 0.95430022 7.88232422 1.38232422 C20.58909315 3.57943397 32.05292409 8.31731774 43.79248047 13.54248047 C44.76145264 13.97173828 44.76145264 13.97173828 45.75 14.40966797 C48.06776384 15.44126231 50.37578278 16.48976773 52.67138672 17.56982422 C54.80577517 18.57978917 54.80577517 18.57978917 57.12841797 19.41357422 C60.55631572 20.86615846 63.68268514 22.73582723 66.85498047 24.66748047 C67.85005615 25.27233276 67.85005615 25.27233276 68.86523438 25.8894043 C70.84535184 27.10016313 72.81971621 28.31978561 74.79248047 29.54248047 C75.79923828 30.16251953 76.80599609 30.78255859 77.84326172 31.42138672 C87.10546375 37.35278304 95.4223878 44.43303606 103.79248047 51.54248047 C105.19820313 52.72970703 105.19820313 52.72970703 106.63232422 53.94091797 C110.76698 57.51721853 114.4716582 61.25838618 117.99560547 65.43701172 C119.94741458 67.72402283 121.9923608 69.90582728 124.04248047 72.10498047 C156.75585745 108.49026711 176.60075065 159.70020994 176.12866211 208.55908203 C176.10492443 211.17365242 176.10815576 213.78720309 176.11474609 216.40185547 C176.09157692 230.60714277 174.87887982 244.5405406 172.04248047 258.47998047 C171.8769165 259.30135498 171.71135254 260.12272949 171.54077148 260.96899414 C169.40835145 271.01551074 166.27989832 280.88560694 162.18310547 290.30810547 C161.14412236 292.72461674 160.31225419 294.9646386 159.60498047 297.47998047 C151.28549037 322.73709912 133.56731068 346.14193693 115.26757812 365.02050781 C113.78984196 366.54520282 112.32853291 368.0845834 110.86669922 369.62451172 C76.62487303 405.24352287 23.76122201 430.39132728 -25.89746094 431.71948242 C-27.61791651 431.74610959 -29.33848187 431.76621968 -31.05908203 431.78076172 C-31.99440765 431.78883347 -32.92973328 431.79690521 -33.8934021 431.80522156 C-35.87178741 431.81899501 -37.8501958 431.829747 -39.82861328 431.83764648 C-41.80622575 431.84905826 -43.78381015 431.86933389 -45.76123047 431.89916992 C-64.98167775 432.18808998 -82.98482227 429.6124038 -101.28564453 423.69091797 C-104.15502162 422.78890353 -106.97812412 422.21309974 -109.94189453 421.70654297 C-116.07825773 420.52575439 -121.53491086 418.10633409 -127.20751953 415.54248047 C-128.30257812 415.05191162 -129.39763672 414.56134277 -130.52587891 414.0559082 C-164.91137995 398.42499181 -196.1894594 374.51943091 -218.20751953 343.54248047 C-218.62404785 342.95966309 -219.04057617 342.3768457 -219.46972656 341.77636719 C-231.68318662 324.50324589 -241.88122721 305.75786003 -248.20751953 285.54248047 C-248.68407924 284.14575493 -249.16310124 282.74986618 -249.64501953 281.35498047 C-250.16812358 279.75155283 -250.68860583 278.14726912 -251.20751953 276.54248047 C-251.58908203 275.41326172 -251.97064453 274.28404297 -252.36376953 273.12060547 C-258.80940785 253.35564039 -260.57751618 233.51667097 -260.58251953 212.85498047 C-260.58442291 212.00684784 -260.58632629 211.15871521 -260.58828735 210.28488159 C-260.58555267 199.53169899 -259.96919612 189.16960161 -258.20751953 178.54248047 C-258.06701172 177.68275635 -257.92650391 176.82303223 -257.78173828 175.93725586 C-255.52852137 163.05719424 -251.61006067 150.8294303 -247.20751953 138.54248047 C-246.78470703 137.33720703 -246.36189453 136.13193359 -245.92626953 134.89013672 C-242.70801945 126.09431132 -238.56530105 117.81664375 -234.20751953 109.54248047 C-233.61326172 108.40037109 -233.01900391 107.25826172 -232.40673828 106.08154297 C-222.18392684 87.29958961 -208.35823308 71.46743835 -193.20751953 56.54248047 C-192.41861328 55.73939453 -191.62970703 54.93630859 -190.81689453 54.10888672 C-176.37809502 39.90785187 -159.81875244 29.34679754 -142.20751953 19.54248047 C-141.20462891 18.97658203 -140.20173828 18.41068359 -139.16845703 17.82763672 C-128.71903552 12.26385919 -117.34217433 8.4857111 -106.20751953 4.54248047 C-104.98162109 4.10548828 -103.75572266 3.66849609 -102.49267578 3.21826172 C-70.59486132 -6.95846849 -32.60301493 -6.38693547 0 0 Z M-86.20751953 8.54248047 C-87.83994749 8.93341262 -89.47276534 9.32272005 -91.10595703 9.71044922 C-95.84360439 10.86651677 -100.52514561 12.18199919 -105.20751953 13.54248047 C-105.91730957 13.7400293 -106.62709961 13.93757813 -107.35839844 14.14111328 C-127.93816972 19.93702951 -147.46598912 30.12591211 -164.38183594 43.14013672 C-166.17517661 44.51763723 -167.98976194 45.86113216 -169.81298828 47.19873047 C-175.72995451 51.58312464 -181.13346577 56.21474072 -186.23095703 61.53466797 C-187.98165228 63.3130422 -189.76128231 64.86226808 -191.70751953 66.41748047 C-195.6529527 69.70381575 -198.71770954 73.65349063 -201.89892578 77.66357422 C-203.599803 79.7846343 -205.32728745 81.82468149 -207.12158203 83.86279297 C-226.99011294 106.94170152 -240.39245617 137.11477807 -247.20751953 166.54248047 C-247.41634766 167.41163086 -247.62517578 168.28078125 -247.84033203 169.17626953 C-254.46629597 198.01808409 -253.90828716 231.18843381 -246.86572266 259.84912109 C-246.24234039 262.39999391 -245.68913359 264.95487536 -245.16064453 267.52685547 C-240.55816694 289.18732281 -229.68157973 311.29978374 -217.20751953 329.54248047 C-216.83981445 330.08839844 -216.47210938 330.63431641 -216.09326172 331.19677734 C-202.78987862 350.85880157 -186.55509493 368.71592535 -167.20751953 382.54248047 C-165.74185547 383.62529297 -165.74185547 383.62529297 -164.24658203 384.72998047 C-150.68039602 394.49484443 -136.05926614 403.15362736 -120.20751953 408.54248047 C-118.75752539 409.09302937 -117.30976108 409.64947193 -115.86376953 410.21044922 C-104.8328132 414.46474006 -93.77451152 418.05733896 -82.20751953 420.54248047 C-81.44358887 420.7076416 -80.6796582 420.87280273 -79.89257812 421.04296875 C-38.65343028 429.40143783 0.92927482 421.48276818 39.79248047 407.54248047 C39.79248047 406.88248047 39.79248047 406.22248047 39.79248047 405.54248047 C40.71931641 405.49994141 41.64615234 405.45740234 42.60107422 405.41357422 C48.28511649 404.59015157 52.96519401 401.45294852 57.85498047 398.60498047 C58.8755957 398.01813477 59.89621094 397.43128906 60.94775391 396.82666016 C102.52233875 372.60883896 131.70622219 337.65544317 151.51806641 294.32128906 C152.5475346 292.07657508 153.60420267 289.84940899 154.67529297 287.62451172 C164.71215726 265.21235141 167.17273906 238.36381668 167.05322266 214.01464844 C167.04246199 211.41301338 167.05321048 208.8120641 167.06591797 206.21044922 C167.091065 180.04216699 161.13023701 154.53786215 150.79248047 130.54248047 C150.30110596 129.39247559 150.30110596 129.39247559 149.79980469 128.21923828 C145.36990108 117.99095062 140.02963553 108.7602229 133.79248047 99.54248047 C133.15697266 98.53830078 132.52146484 97.53412109 131.86669922 96.49951172 C126.96543888 88.81782626 121.29519981 82.02873449 115.26831055 75.22558594 C113.71213282 73.45084826 112.19236076 71.64821132 110.67138672 69.84326172 C108.54535632 67.35725572 106.37951771 65.13469738 103.85498047 63.04248047 C101.24963435 60.83530989 98.82837733 58.58259534 96.47998047 56.10498047 C92.05047179 51.61547845 86.94470718 48.14836391 81.79248047 44.54248047 C80.39449219 43.50994141 80.39449219 43.50994141 78.96826172 42.45654297 C54.92277075 25.04320703 27.47407794 14.02269972 -1.39501953 7.66748047 C-2.31404053 7.46437256 -3.23306152 7.26126465 -4.17993164 7.05200195 C-29.93876047 1.66040215 -60.78784891 1.93336611 -86.20751953 8.54248047 Z " fill="#F1F1F1" transform="translate(293.20751953125,36.45751953125)"/>
<path d="M0 0 C0.86455811 -0.0033284 1.72911621 -0.0066568 2.61987305 -0.01008606 C4.44530713 -0.01512864 6.27075036 -0.01749521 8.09619141 -0.01733398 C10.83902932 -0.01950281 13.58145275 -0.0376382 16.32421875 -0.05664062 C26.6981121 -0.09072816 36.62959896 0.39466769 46.875 2.16796875 C47.84566406 2.33433838 48.81632813 2.50070801 49.81640625 2.67211914 C90.74578625 10.17899245 130.10945991 29.31248166 159.13671875 59.4921875 C160.92537795 61.27768473 160.92537795 61.27768473 163.30859375 63.046875 C166.03078328 65.29672114 168.0605254 67.6514846 170.25 70.41796875 C172.91894635 73.75857047 175.60990983 77.01751009 178.5 80.16796875 C181.76081039 83.86902586 184.36272467 87.82218579 186.9375 92.0234375 C188.32020713 94.26754887 189.72632401 96.46508485 191.1875 98.65625 C198.39083162 109.58735916 203.83897301 121.10020661 208.875 133.16796875 C209.17921875 133.89032715 209.4834375 134.61268555 209.796875 135.35693359 C217.53582266 154.14304652 221.90615418 175.5319884 222.11328125 195.84765625 C222.12302979 196.64980057 222.13277832 197.45194489 222.14282227 198.27839661 C222.32624475 217.30790607 221.65526031 235.44953216 217.875 254.16796875 C217.70371582 255.08980957 217.53243164 256.01165039 217.35595703 256.96142578 C212.08361813 285.07550191 197.86112513 312.33393825 180.875 335.16796875 C180.22273438 336.05226563 179.57046875 336.9365625 178.8984375 337.84765625 C162.18434029 359.54042072 141.58065996 377.03716302 118.06445312 390.875 C115.98593265 392.10245812 113.92177203 393.35116946 111.859375 394.60546875 C110.63607755 395.33574362 109.41215669 396.0649756 108.1875 396.79296875 C107.13175781 397.42460937 106.07601563 398.05625 104.98828125 398.70703125 C101.57156951 400.31035646 98.61618121 400.81973302 94.875 401.16796875 C94.875 401.82796875 94.875 402.48796875 94.875 403.16796875 C66.62061652 412.73699091 66.62061652 412.73699091 56.875 415.16796875 C55.90578613 415.43867187 55.90578613 415.43867187 54.91699219 415.71484375 C29.74843316 422.60332592 -1.73788691 421.65664011 -27.125 416.16796875 C-27.92373535 415.9963623 -28.7224707 415.82475586 -29.54541016 415.64794922 C-41.05662519 413.07328409 -52.04616516 409.22643355 -63.02978516 404.96728516 C-64.86612138 404.26672995 -66.7191001 403.61012398 -68.57421875 402.9609375 C-88.92962192 395.73310927 -106.62839571 382.8139277 -123.125 369.16796875 C-123.88683594 368.54019531 -124.64867188 367.91242188 -125.43359375 367.265625 C-135.31382838 358.86434441 -144.23930684 349.45029415 -152.125 339.16796875 C-152.82979492 338.27706543 -152.82979492 338.27706543 -153.54882812 337.36816406 C-167.9683609 319.05370002 -178.37817847 298.09079214 -186.125 276.16796875 C-186.65236034 274.79768166 -187.18101699 273.4278928 -187.7109375 272.05859375 C-189.63960762 266.92191272 -190.65912932 261.69008906 -191.68945312 256.30908203 C-192.14099889 254.0893195 -192.66951548 251.8966858 -193.203125 249.6953125 C-199.41489434 222.06664336 -198.70350045 189.64739253 -192.125 162.16796875 C-191.82746826 160.86472656 -191.82746826 160.86472656 -191.52392578 159.53515625 C-183.44795976 125.09826055 -165.65909263 92.56797053 -141.125 67.16796875 C-140.05077671 65.90702945 -138.98629216 64.63763825 -137.9375 63.35546875 C-135.31227572 60.2515711 -132.38718568 57.64812375 -129.28515625 55.02734375 C-127.84186371 53.78501599 -126.43214549 52.50261886 -125.05859375 51.18359375 C-93.30733207 20.92326088 -43.96957136 0.06013761 0 0 Z M-32.75 8.54296875 C-33.73782471 8.76210938 -34.72564941 8.98125 -35.7434082 9.20703125 C-50.70891317 12.59090026 -64.49409664 17.63932127 -78.15625 24.6640625 C-80.03175656 25.61415464 -81.92629533 26.52832139 -83.84375 27.390625 C-100.30491169 34.95073718 -114.96946893 46.85331418 -128.125 59.16796875 C-128.72538086 59.72983887 -129.32576172 60.29170898 -129.94433594 60.87060547 C-147.94080958 77.90143811 -165.73481258 100.10366733 -174.140625 123.69140625 C-174.99187671 125.83304744 -175.94654166 127.78723923 -177.0078125 129.828125 C-179.36807411 134.48344762 -181.06938894 139.29646238 -182.75 144.23046875 C-183.0490625 145.08962891 -183.348125 145.94878906 -183.65625 146.83398438 C-200.19387191 194.72723012 -194.75764125 249.12904857 -174.20703125 294.66210938 C-173.26463002 296.84460174 -172.45157977 299.01910617 -171.6796875 301.265625 C-169.91827785 306.09385137 -167.16465442 310.25152515 -164.375 314.54296875 C-163.83496338 315.3829541 -163.29492676 316.22293945 -162.73852539 317.08837891 C-161.21053452 319.45484817 -159.67059879 321.81297411 -158.125 324.16796875 C-157.15626953 325.65296875 -157.15626953 325.65296875 -156.16796875 327.16796875 C-151.7211616 333.74621388 -146.57453264 339.72331007 -141.37939453 345.71386719 C-140.31215972 346.95101209 -139.2616612 348.20256289 -138.21484375 349.45703125 C-134.35936749 354.03256099 -130.13291711 358.01584268 -125.63671875 361.9609375 C-124.09670138 363.31414094 -122.57380778 364.68754382 -121.08203125 366.09375 C-96.3741721 389.17672093 -64.85621367 402.69110644 -32.39501953 410.38818359 C-30.39729037 410.86457205 -28.40251772 411.35389117 -26.41357422 411.86572266 C-0.31617913 418.54036653 30.46104711 417.70276282 56.40332031 410.81738281 C58.69514344 410.21522462 60.98806852 409.68805056 63.3046875 409.19140625 C73.57783517 406.93283172 83.18645723 403.20226164 92.875 399.16796875 C94.01324219 398.70003906 95.15148437 398.23210937 96.32421875 397.75 C116.26895597 388.86373094 134.44151532 377.1905533 150.4765625 362.375 C152.09310812 360.88746209 153.73468097 359.4267268 155.3984375 357.9921875 C161.65877266 352.56977412 166.77124099 346.67385936 171.875 340.16796875 C172.49632812 339.43578125 173.11765625 338.70359375 173.7578125 337.94921875 C178.50328045 332.31025265 182.54504784 326.27206608 186.5625 320.10546875 C187.38282715 318.84682007 187.38282715 318.84682007 188.21972656 317.56274414 C192.79692302 310.45248871 197.29607357 303.3375919 200.1875 295.35546875 C201.66044754 291.36079774 203.17683107 287.40897137 204.828125 283.484375 C211.06713533 268.57853708 214.78769592 254.3232364 216.48046875 238.265625 C216.875 235.16796875 216.875 235.16796875 217.875 233.16796875 C217.9741255 231.80800492 218.01327488 230.44338767 218.02026367 229.07983398 C218.02664352 228.23392197 218.03302338 227.38800995 218.03959656 226.51646423 C218.04070938 225.59579666 218.0418222 224.67512909 218.04296875 223.7265625 C218.04629715 222.77088882 218.04962555 221.81521515 218.05305481 220.83058167 C218.05813006 218.79534384 218.06046295 216.76009766 218.06030273 214.72485352 C218.06245459 211.66993537 218.08050569 208.61539936 218.09960938 205.56054688 C218.14221945 191.11455056 217.54718338 177.20801485 213.875 163.16796875 C213.68679688 162.29914063 213.49859375 161.4303125 213.3046875 160.53515625 C207.0098165 132.25256683 193.11133406 104.60055269 174.875 82.16796875 C174.46991211 81.66281738 174.06482422 81.15766602 173.64746094 80.63720703 C162.52052824 66.81553663 150.15506565 54.69830859 135.875 44.16796875 C134.42673828 43.06775391 134.42673828 43.06775391 132.94921875 41.9453125 C115.56524466 29.25846519 95.13875082 18.64410058 74.328125 13.09765625 C72.1367745 12.50767727 69.95681985 11.87200713 67.796875 11.17578125 C49.49347952 5.36017037 30.77482347 3.79009014 11.6875 3.79296875 C10.52334061 3.79024963 10.52334061 3.79024963 9.33566284 3.78747559 C-4.99593827 3.79127108 -18.74073055 5.40281204 -32.75 8.54296875 Z " fill="#1D1D1D" transform="translate(238.125,40.83203125)"/>
<path d="M0 0 C1.13570889 3.40712666 0.94968124 3.75442413 -0.4765625 6.84375 C-0.81518311 7.58971436 -1.15380371 8.33567871 -1.50268555 9.10424805 C-1.87304932 9.89484619 -2.24341309 10.68544434 -2.625 11.5 C-2.9960083 12.3144458 -3.3670166 13.1288916 -3.74926758 13.96801758 C-5.29746905 17.35990968 -6.87507318 20.73656015 -8.47265625 24.10546875 C-27.40248051 64.33895375 -30.08870654 120.48252562 -15.625 162.7734375 C-12.50490627 171.1721025 -8.7658333 179.33210638 -5.08203125 187.49414062 C-4.13963002 189.67663299 -3.32657977 191.85113742 -2.5546875 194.09765625 C-0.79327785 198.92588262 1.96034558 203.0835564 4.75 207.375 C5.29003662 208.21498535 5.83007324 209.0549707 6.38647461 209.92041016 C7.91446548 212.28687942 9.45440121 214.64500536 11 217 C11.64582031 217.99 12.29164062 218.98 12.95703125 220 C17.40140464 226.57464483 22.5447675 232.54954924 27.73681641 238.53710938 C28.82892325 239.80187632 29.90612444 241.07948552 30.98046875 242.359375 C34.34468685 246.33176983 37.88956373 249.81433706 41.8671875 253.171875 C43.32039156 254.41747848 44.74174585 255.70099058 46.1328125 257.015625 C72.08788926 281.47498548 104.77814733 295.01406289 139 303 C139.9585791 303.22494141 140.9171582 303.44988281 141.90478516 303.68164062 C157.84930198 307.3034346 173.71261556 307.80057667 190 308 C190 308.33 190 308.66 190 309 C183.4 309 176.8 309 170 309 C170 309.66 170 310.32 170 311 C188.81 310.505 188.81 310.505 208 310 C203.56117564 312.21941218 200.2330547 312.30535518 195.4140625 312.30078125 C194.56884033 312.30638062 193.72361816 312.31197998 192.8527832 312.31774902 C190.11000849 312.32967631 187.36777431 312.32338426 184.625 312.3125 C183.6933905 312.31067719 182.76178101 312.30885437 181.80194092 312.30697632 C168.02283329 312.26132453 154.51833209 311.92265142 141 309 C140.20126465 308.82839355 139.4025293 308.65678711 138.57958984 308.47998047 C127.06837481 305.90531534 116.07883484 302.0584648 105.09521484 297.79931641 C103.25887862 297.0987612 101.4058999 296.44215523 99.55078125 295.79296875 C79.19537808 288.56514052 61.49660429 275.64595895 45 262 C44.23816406 261.37222656 43.47632812 260.74445313 42.69140625 260.09765625 C32.81117162 251.69637566 23.88569316 242.2823254 16 232 C15.29520508 231.10909668 15.29520508 231.10909668 14.57617188 230.20019531 C0.1566391 211.88573127 -10.25317847 190.92282339 -18 169 C-18.52736034 167.62971291 -19.05601699 166.25992405 -19.5859375 164.890625 C-21.51460762 159.75394397 -22.53412932 154.52212031 -23.56445312 149.14111328 C-24.01599889 146.92135075 -24.54451548 144.72871705 -25.078125 142.52734375 C-31.28989434 114.89867461 -30.57850045 82.47942378 -24 55 C-23.80164551 54.13117188 -23.60329102 53.26234375 -23.39892578 52.3671875 C-19.3244666 34.99320085 -12.87341067 15.95592586 -3 1 C-2.01 0.67 -1.02 0.34 0 0 Z " fill="#1C1C1C" transform="translate(70,148)"/>
<path d="M0 0 C3.68793009 0.63585002 3.68793009 0.63585002 5.29907227 2.51586914 C8.83054147 5.59722428 14.47706168 4.46620967 18.9375 4.4375 C20.03513672 4.45748047 21.13277344 4.47746094 22.26367188 4.49804688 C23.32005859 4.49740234 24.37644531 4.49675781 25.46484375 4.49609375 C26.91298462 4.49887329 26.91298462 4.49887329 28.39038086 4.50170898 C31.68234612 3.86881642 32.87965512 2.52407106 35 0 C35.99 0.33 36.98 0.66 38 1 C40.50325746 7.05788306 40.29928898 13.15171419 40.25 19.625 C40.26160156 21.16027344 40.26160156 21.16027344 40.2734375 22.7265625 C40.27085937 23.7165625 40.26828125 24.7065625 40.265625 25.7265625 C40.26336914 26.61939941 40.26111328 27.51223633 40.25878906 28.43212891 C39.9651013 31.34628724 39.41860216 33.43180218 38 36 C34.69711533 37.56115685 30.81564629 37.1294467 27.22265625 37.1328125 C25.90458984 37.13410156 24.58652344 37.13539063 23.22851562 37.13671875 C22.54442627 37.13462402 21.86033691 37.1325293 21.15551758 37.13037109 C19.07300501 37.12502696 16.99070895 37.13032239 14.90820312 37.13671875 C13.58884766 37.13542969 12.26949219 37.13414062 10.91015625 37.1328125 C9.70496338 37.13168457 8.49977051 37.13055664 7.25805664 37.12939453 C4.37570186 37.01492109 1.79933838 36.66554923 -1 36 C-2.67085996 25.97484023 -4.65703456 9.31406912 0 0 Z " fill="#060606" transform="translate(322,174)"/>
<path d="M0 0 C4.81176297 2.98363797 4.81176297 2.98363797 6.7421875 4.9140625 C6.99975865 8.77762971 7.13299842 11.76253902 4.7421875 14.9140625 C0.96565218 17.2639067 -1.80839664 18.30665802 -6.2578125 17.9140625 C-6.2578125 14.00973381 -5.57407942 11.53379652 -4.2578125 7.9140625 C-8.91176031 7.58936847 -11.49140168 8.11615732 -15.2578125 10.9140625 C-16.85527129 14.10898009 -16.76598092 17.44615639 -16.2578125 20.9140625 C-13.34346541 24.83335687 -10.7201396 25.69333388 -5.9453125 26.4140625 C-1.85088041 25.85888527 -1.45171134 25.48055523 1.0546875 22.4765625 C1.52519531 21.83847656 1.99570313 21.20039063 2.48046875 20.54296875 C3.7421875 18.9140625 3.7421875 18.9140625 5.7421875 17.9140625 C7.23868112 17.79400797 8.74093543 17.73874799 10.2421875 17.7265625 C11.03625 17.71238281 11.8303125 17.69820313 12.6484375 17.68359375 C14.7421875 17.9140625 14.7421875 17.9140625 16.7421875 19.9140625 C20.32562726 20.08083532 20.32562726 20.08083532 23.7421875 19.9140625 C23.20823446 24.45266338 21.3224457 27.20494133 18.7421875 30.9140625 C18.4121875 31.9040625 18.0821875 32.8940625 17.7421875 33.9140625 C22.1971875 33.4190625 22.1971875 33.4190625 26.7421875 32.9140625 C24.07437243 38.24969264 21.37144035 42.50152556 15.7421875 44.9140625 C12.4296875 44.6015625 12.4296875 44.6015625 9.7421875 43.9140625 C9.2471875 40.9440625 9.2471875 40.9440625 8.7421875 37.9140625 C7.4428125 38.935 7.4428125 38.935 6.1171875 39.9765625 C2.7421875 41.9140625 2.7421875 41.9140625 -0.5078125 41.8515625 C-3.2578125 40.9140625 -3.2578125 40.9140625 -5.2578125 37.9140625 C-5.3828125 35.2265625 -5.3828125 35.2265625 -5.2578125 32.9140625 C-5.97066406 33.23632812 -6.68351562 33.55859375 -7.41796875 33.890625 C-12.00931608 35.54527837 -16.44182808 35.49311048 -21.2578125 34.9140625 C-25.43851224 32.86038543 -27.51370194 31.17744386 -29.2578125 26.9140625 C-30.51892913 20.00217325 -28.94400839 14.95110881 -25.10546875 9.1796875 C-19.21196772 1.95298434 -9.37623355 -4.50967634 0 0 Z " fill="#090909" transform="translate(188.2578125,394.0859375)"/>
<path d="M0 0 C0.99 0 1.98 0 3 0 C3.66 6.6 4.32 13.2 5 20 C6.32 19.01 7.64 18.02 9 17 C9.99 17.33 10.98 17.66 12 18 C12.391875 16.783125 12.78375 15.56625 13.1875 14.3125 C14.91560628 9.67130027 17.47790809 6.26104596 22 4 C29.09859155 3.54929577 29.09859155 3.54929577 32 5 C33.68477849 8.36955699 33.29650704 11.2640113 33 15 C31 17 31 17 28.375 17.125 C27.59125 17.08375 26.8075 17.0425 26 17 C25.505 14.525 25.505 14.525 25 12 C24.01 12.33 23.02 12.66 22 13 C21.79029441 17.14093698 21.79029441 17.14093698 23 21 C28.9336057 21.62891795 28.9336057 21.62891795 33.875 18.6875 C36.05597052 16.00374191 36.05597052 16.00374191 38 13 C38.66 13 39.32 13 40 13 C39.57971478 20.8453242 37.1781719 26.117472 31.3125 31.4375 C27.32703291 34.13038317 24.85508865 34.41144819 20 34 C16.61060444 31.86320715 15.27417443 30.8225233 14 27 C13.34 26.67 12.68 26.34 12 26 C11.67 26.99 11.34 27.98 11 29 C10.34 29.33 9.68 29.66 9 30 C9.02320313 30.77085938 9.04640625 31.54171875 9.0703125 32.3359375 C9.09738281 33.84027344 9.09738281 33.84027344 9.125 35.375 C9.14820313 36.37273437 9.17140625 37.37046875 9.1953125 38.3984375 C9 41 9 41 7 43 C4.375 43.125 4.375 43.125 2 43 C0.39644899 39.49223216 -0.22036864 36.85645121 0 33 C-5.31411494 34.92391649 -5.31411494 34.92391649 -9 39 C-10.65 38.67 -12.3 38.34 -14 38 C-14.125 30.375 -14.125 30.375 -13 27 C-12.9314505 25.10529184 -12.91519628 23.2083166 -12.9375 21.3125 C-12.94652344 20.31863281 -12.95554688 19.32476562 -12.96484375 18.30078125 C-12.97644531 17.54152344 -12.98804688 16.78226563 -13 16 C-13.78375 16.04125 -14.5675 16.0825 -15.375 16.125 C-18 16 -18 16 -20 14 C-20.42834085 10.14493238 -20.55897202 7.87199635 -18.4375 4.5625 C-15.05782196 2.39603972 -12.94016013 2.43711998 -9 3 C-6.09657842 5.17368461 -5.11074145 6.34078317 -4.50390625 9.953125 C-4.62315543 16.66287861 -5.13088447 21.90312949 -8 28 C-7.21625 27.505 -6.4325 27.01 -5.625 26.5 C-3 25 -3 25 -1 25 C-1.00785522 23.91730835 -1.00785522 23.91730835 -1.01586914 22.81274414 C-1.03657358 19.56267151 -1.04963918 16.31261272 -1.0625 13.0625 C-1.07087891 11.92619141 -1.07925781 10.78988281 -1.08789062 9.61914062 C-1.09272461 7.99975586 -1.09272461 7.99975586 -1.09765625 6.34765625 C-1.10551147 4.84730835 -1.10551147 4.84730835 -1.11352539 3.31665039 C-1 1 -1 1 0 0 Z " fill="#0A0A0A" transform="translate(205,61)"/>
<path d="M0 0 C0.99 0.33 1.98 0.66 3 1 C3 1.99 3 2.98 3 4 C3.70125 3.505 4.4025 3.01 5.125 2.5 C8.40277115 0.78985853 10.3545688 0.67596167 14 1 C14.66 1.33 15.32 1.66 16 2 C16 2.99 16 3.98 16 5 C16.680625 4.505 17.36125 4.01 18.0625 3.5 C21.6413106 1.67252225 24.02991497 1.62546368 28 2 C28.66 2.66 29.32 3.32 30 4 C29.6171896 8.0577902 28.84527244 12.01514422 28 16 C30.97 15.34 33.94 14.68 37 14 C37.0825 13.29875 37.165 12.5975 37.25 11.875 C38.39170206 7.49847544 40.69104012 4.35409643 43.8125 1.125 C47.05308776 -0.54158799 49.41649801 -0.44793775 53 0 C55.5 1.5625 55.5 1.5625 57 4 C56.93995597 7.42250954 56.63533462 9.87882126 54.9375 12.875 C51.79043191 14.70232986 48.60348883 14.70463206 45 15 C45 15.66 45 16.32 45 17 C46.77368892 16.77113691 48.54401077 16.5160762 50.3125 16.25 C51.29863281 16.11078125 52.28476562 15.9715625 53.30078125 15.828125 C56.5157532 14.84176602 57.13639463 13.68883825 59 11 C59.99 11 60.98 11 62 11 C60.29330362 17.36132288 57.59719891 22.28695391 52.0625 25.9375 C48.65973027 27.11805276 46.56181756 27.60626682 43 27 C39.26920724 24.03232394 37.6266008 21.39921581 36 17 C35.61328125 17.62648438 35.2265625 18.25296875 34.828125 18.8984375 C34.30734375 19.71570313 33.7865625 20.53296875 33.25 21.375 C32.73953125 22.18710937 32.2290625 22.99921875 31.703125 23.8359375 C29.90523563 26.12041161 28.69608801 26.99568036 26 28 C23.375 28.3125 23.375 28.3125 21 28 C18.61894478 24.42841717 18.60217885 23.21690421 19 19 C19.85690064 16.25098348 20.89664038 13.66645241 22 11 C20.02 11.33 18.04 11.66 16 12 C15.87882812 12.83144531 15.75765625 13.66289062 15.6328125 14.51953125 C15.46523437 15.60621094 15.29765625 16.69289063 15.125 17.8125 C14.96257812 18.89144531 14.80015625 19.97039062 14.6328125 21.08203125 C14 24 14 24 12 27 C9.5 27.3125 9.5 27.3125 7 27 C5 25 5 25 4.6875 22.4375 C5.09060395 18.00335659 6.44975445 14.15244344 8 10 C4.41188506 11.10978392 4.41188506 11.10978392 1.75 13.625 C1.04467448 15.85853082 0.75207777 17.80588451 0.5 20.125 C0 24 0 24 -2 26 C-4.5625 26.1875 -4.5625 26.1875 -7 26 C-8 25 -8 25 -8.4375 21.3125 C-8.40368509 14.32408562 -4.96171932 4.96171932 0 0 Z " fill="#0A0A0A" transform="translate(223,416)"/>
<path d="M0 0 C-0.33 0.66 -0.66 1.32 -1 2 C-3.17041016 2.37890625 -3.17041016 2.37890625 -6.0390625 2.5625 C-7.08658691 2.63573486 -8.13411133 2.70896973 -9.21337891 2.78442383 C-10.90213135 2.89113403 -10.90213135 2.89113403 -12.625 3 C-14.9376868 3.16802126 -17.25019061 3.33858112 -19.5625 3.51171875 C-20.68140625 3.59470215 -21.8003125 3.67768555 -22.953125 3.76318359 C-49.10469291 5.79579745 -74.70303483 12.5013027 -98.03125 24.49609375 C-99.90675656 25.44618589 -101.80129533 26.36035264 -103.71875 27.22265625 C-120.18591456 34.78552537 -134.82953536 46.69458436 -148 59 C-148.56799316 59.52948242 -149.13598633 60.05896484 -149.72119141 60.60449219 C-164.35065814 74.3916436 -176.18126194 90.48730774 -186 108 C-187.32 107.67 -188.64 107.34 -190 107 C-188.37400775 102.38110994 -185.96840095 98.43409423 -183.375 94.3125 C-182.92842041 93.60206543 -182.48184082 92.89163086 -182.02172852 92.15966797 C-176.49731658 83.49434863 -170.01389693 75.88753254 -163.08984375 68.3125 C-161.31643159 66.35014486 -159.61849755 64.35338591 -157.9375 62.3125 C-155.26413131 59.17037625 -152.30827468 56.51909375 -149.16015625 53.859375 C-147.71686371 52.61704724 -146.30714549 51.33465011 -144.93359375 50.015625 C-121.83783465 28.00436242 -90.62006312 12.85564558 -60 5 C-59.16823242 4.78375977 -58.33646484 4.56751953 -57.47949219 4.34472656 C-38.38365703 -0.52344245 -19.60755434 -0.13251102 0 0 Z " fill="#1C1C1C" transform="translate(258,42)"/>
<path d="M0 0 C0.721875 0.185625 1.44375 0.37125 2.1875 0.5625 C4.65387704 1.15783239 6.57005121 0.6074872 9 0 C8.48846191 4.34807375 7.67863478 7.97127652 6 12 C6 12.99 6 13.98 6 15 C9.02419525 14.41196203 12.01758453 13.77321882 15 13 C14.43864007 16.91565878 13.31225965 19.44762608 11.0625 22.6875 C10.53785156 23.45449219 10.01320313 24.22148438 9.47265625 25.01171875 C8 27 8 27 6 29 C2.375 29.125 2.375 29.125 -1 29 C-1.99 27.02 -2.98 25.04 -4 23 C-4.928125 24.2065625 -4.928125 24.2065625 -5.875 25.4375 C-8.39629846 28.47788932 -9.05674803 28.89965405 -12.9375 29.3125 C-16 29 -16 29 -17.66796875 27.27734375 C-20.26449475 22.83812188 -19.58933818 17.63603201 -18.49609375 12.74609375 C-15.50226187 3.73038288 -9.44430425 -0.69104665 0 0 Z " fill="#070707" transform="translate(268,61)"/>
<path d="M0 0 C3.16115776 1.36983503 3.9927092 1.9890638 6 5 C8.83837291 5.32924207 11.45371924 5.46803602 14.296875 5.46875 C15.12326477 5.47636353 15.94965454 5.48397705 16.80108643 5.49182129 C18.55290708 5.50263933 20.30479233 5.50546848 22.05664062 5.50097656 C24.72637183 5.50000857 27.39318745 5.54151477 30.0625 5.5859375 C31.76561902 5.5911479 33.46874801 5.59383264 35.171875 5.59375 C36.36281769 5.6183429 36.36281769 5.6183429 37.57781982 5.64343262 C43.44772155 5.57097825 45.78465846 4.03456978 50 0 C50.66 0 51.32 0 52 0 C54.55168789 5.10337579 53.62045932 11.30688974 54 17 C35.85 17 17.7 17 -1 17 C-1 2 -1 2 0 0 Z " fill="#F5F5F5" transform="translate(156,142)"/>
<path d="M0 0 C1.4540625 0.0309375 1.4540625 0.0309375 2.9375 0.0625 C1.9475 0.3925 0.9575 0.7225 -0.0625 1.0625 C-0.0625 3.0425 -0.0625 5.0225 -0.0625 7.0625 C1.5875 7.0625 3.2375 7.0625 4.9375 7.0625 C4.9375 5.0825 4.9375 3.1025 4.9375 1.0625 C9.6875 -0.0625 9.6875 -0.0625 11.9375 1.0625 C13.2575 1.0625 14.5775 1.0625 15.9375 1.0625 C15.9375 7.0025 15.9375 12.9425 15.9375 19.0625 C16.5975 19.0625 17.2575 19.0625 17.9375 19.0625 C17.9375 13.1225 17.9375 7.1825 17.9375 1.0625 C26.3359375 0.8671875 26.3359375 0.8671875 28.9375 1.0625 C29.5975 1.7225 30.2575 2.3825 30.9375 3.0625 C30.84375 5.05078125 30.84375 5.05078125 30.4375 7.375 C29.8911292 11.3000776 30.22624659 13.43866924 31.9375 17.0625 C32.0625 19.875 32.0625 19.875 31.9375 22.0625 C30.6175 21.7325 29.2975 21.4025 27.9375 21.0625 C27.6075 18.0925 27.2775 15.1225 26.9375 12.0625 C26.2775 12.0625 25.6175 12.0625 24.9375 12.0625 C24.9375 15.3625 24.9375 18.6625 24.9375 22.0625 C23.6175 22.0625 22.2975 22.0625 20.9375 22.0625 C20.6075 21.0725 20.2775 20.0825 19.9375 19.0625 C19.2775 20.0525 18.6175 21.0425 17.9375 22.0625 C16.2875 21.7325 14.6375 21.4025 12.9375 21.0625 C12.6075 20.0725 12.2775 19.0825 11.9375 18.0625 C11.2775 19.3825 10.6175 20.7025 9.9375 22.0625 C5.0625 21.1875 5.0625 21.1875 3.9375 20.0625 C3.86523498 18.20962498 3.8536878 16.35416122 3.875 14.5 C3.88402344 13.48808594 3.89304688 12.47617188 3.90234375 11.43359375 C3.91394531 10.65113281 3.92554688 9.86867187 3.9375 9.0625 C2.6175 9.0625 1.2975 9.0625 -0.0625 9.0625 C-0.0625 13.3525 -0.0625 17.6425 -0.0625 22.0625 C-1.0525 22.0625 -2.0425 22.0625 -3.0625 22.0625 C-4.22831918 19.73086164 -4.19155609 18.34096518 -4.1953125 15.74609375 C-4.19660156 14.89982422 -4.19789063 14.05355469 -4.19921875 13.18164062 C-4.19535156 12.29669922 -4.19148437 11.41175781 -4.1875 10.5 C-4.19136719 9.61119141 -4.19523438 8.72238281 -4.19921875 7.80664062 C-4.19792969 6.96166016 -4.19664062 6.11667969 -4.1953125 5.24609375 C-4.19418457 4.46806396 -4.19305664 3.69003418 -4.19189453 2.88842773 C-3.96659931 -0.2907854 -3.24098476 0.06614255 0 0 Z " fill="#323232" transform="translate(141.0625,173.9375)"/>
<path d="M0 0 C1.32 0 2.64 0 4 0 C4.33 3.96 4.66 7.92 5 12 C8.83736322 11.04065919 9.59660228 10.76390737 12 8 C13.57613249 12.88601072 12.64169929 17.26025527 11 22 C9.1875 24.625 9.1875 24.625 7 26 C4.25 25.75 4.25 25.75 2 25 C1.67 23.68 1.34 22.36 1 21 C0.34 21 -0.32 21 -1 21 C-1.0825 22.093125 -1.165 23.18625 -1.25 24.3125 C-2 28 -2 28 -3.75 30 C-6.6891904 31.30630684 -8.01155593 31.14940157 -11 30 C-15.47103979 25.36928021 -15.33391509 19.83298061 -15.29296875 13.69921875 C-14.76803337 8.86281414 -12.38453316 6.38453316 -9 3 C-7.08984375 2.65625 -7.08984375 2.65625 -4.9375 2.5 C-3.638125 2.335 -2.33875 2.17 -1 2 C-0.67 1.34 -0.34 0.68 0 0 Z " fill="#070707" transform="translate(329,401)"/>
<path d="M0 0 C0.33 1.65 0.66 3.3 1 5 C-0.65 5.33 -2.3 5.66 -4 6 C-4 9.96 -4 13.92 -4 18 C-2.02 17.67 -0.04 17.34 2 17 C1.875 18.75 1.875 18.75 1 21 C-4.55756083 25.19904596 -8.8035349 27.47290617 -15.74609375 27.32421875 C-19.23018866 26.82304045 -21.36363986 25.25055134 -24 23 C-26.3765323 19.43520155 -26.565955 18.20423715 -26 14 C-20.87179174 4.27408778 -10.82237015 -1.83776097 0 0 Z " fill="#0C0C0C" transform="translate(331,73)"/>
<path d="M0 0 C1.67542976 0.28604898 3.34385343 0.61781233 5 1 C4.01 1.495 4.01 1.495 3 2 C3 7.94 3 13.88 3 20 C3.99 20 4.98 20 6 20 C5.98839844 19.05898437 5.97679687 18.11796875 5.96484375 17.1484375 C5.95130859 15.28058594 5.95130859 15.28058594 5.9375 13.375 C5.92589844 12.14523438 5.91429687 10.91546875 5.90234375 9.6484375 C5.99136076 6.32276209 6.36313913 3.25952412 7 0 C9.375 -0.1875 9.375 -0.1875 12 0 C12.66 0.99 13.32 1.98 14 3 C14.33 2.01 14.66 1.02 15 0 C15.67546875 0.08378906 16.3509375 0.16757813 17.046875 0.25390625 C17.93890625 0.35574219 18.8309375 0.45757812 19.75 0.5625 C21.07257813 0.71912109 21.07257813 0.71912109 22.421875 0.87890625 C24.89046719 0.99485528 26.64085457 0.63229348 29 0 C32.07307598 3.07307598 31.0625 11.45900937 31.0625 15.5 C31.04661673 17.3333829 31.02749868 19.16675453 31 21 C29.68 21 28.36 21 27 21 C26.67 15.39 26.34 9.78 26 4 C25.67 9.61 25.34 15.22 25 21 C23.68 21 22.36 21 21 21 C20.67 15.72 20.34 10.44 20 5 C19.67 10.28 19.34 15.56 19 21 C16.69 21.33 14.38 21.66 12 22 C11 21 11 21 10.9375 17.4375 C10.958125 16.303125 10.97875 15.16875 11 14 C10.34 14 9.68 14 9 14 C9 16.64 9 19.28 9 22 C7.52093108 22.02689216 6.04172517 22.04634621 4.5625 22.0625 C3.32693359 22.07990234 3.32693359 22.07990234 2.06640625 22.09765625 C0 22 0 22 -1 21 C-1.09880797 19.52347336 -1.13079245 18.04232764 -1.1328125 16.5625 C-1.13410156 15.66789063 -1.13539063 14.77328125 -1.13671875 13.8515625 C-1.13091797 12.44003906 -1.13091797 12.44003906 -1.125 11 C-1.12886719 10.05898437 -1.13273438 9.11796875 -1.13671875 8.1484375 C-1.13542969 7.25382813 -1.13414062 6.35921875 -1.1328125 5.4375 C-1.13112061 4.19806641 -1.13112061 4.19806641 -1.12939453 2.93359375 C-1 1 -1 1 0 0 Z " fill="#383838" transform="translate(219,175)"/>
<path d="M0 0 C0.86455811 -0.0033284 1.72911621 -0.0066568 2.61987305 -0.01008606 C4.44530713 -0.01512864 6.27075036 -0.01749521 8.09619141 -0.01733398 C10.83902932 -0.01950281 13.58145275 -0.0376382 16.32421875 -0.05664062 C26.6981121 -0.09072816 36.62959896 0.39466769 46.875 2.16796875 C47.84566406 2.33433838 48.81632812 2.50070801 49.81640625 2.67211914 C73.48155494 7.01255315 96.07666441 15.05347431 116.875 27.16796875 C116.545 28.48796875 116.215 29.80796875 115.875 31.16796875 C110.96592289 29.68684751 106.60002868 27.62914349 102.0625 25.29296875 C100.63208677 24.57047237 99.20110174 23.84910689 97.76953125 23.12890625 C96.75173584 22.61602051 96.75173584 22.61602051 95.71337891 22.09277344 C88.78584887 18.60784863 82.00258584 16.20366544 74.50390625 14.16796875 C72.24876466 13.54653038 70.00342024 12.88660126 67.77734375 12.16796875 C46.42872241 5.39566756 24.09232668 4.44767462 1.875 4.16796875 C1.875 3.83796875 1.875 3.50796875 1.875 3.16796875 C10.29 2.67296875 10.29 2.67296875 18.875 2.16796875 C7.325 2.16796875 -4.225 2.16796875 -16.125 2.16796875 C-16.125 1.83796875 -16.125 1.50796875 -16.125 1.16796875 C-10.71052625 0.26330043 -5.48444511 0.00750113 0 0 Z " fill="#1E1E1E" transform="translate(238.125,40.83203125)"/>
<path d="M0 0 C2.5 1.5625 2.5 1.5625 4 4 C3.93995597 7.42250954 3.63533462 9.87882126 1.9375 12.875 C-1.20956809 14.70232986 -4.39651117 14.70463206 -8 15 C-8 15.66 -8 16.32 -8 17 C-6.22631108 16.77113691 -4.45598923 16.5160762 -2.6875 16.25 C-1.70136719 16.11078125 -0.71523438 15.9715625 0.30078125 15.828125 C3.5157532 14.84176602 4.13639463 13.68883825 6 11 C6.99 11 7.98 11 9 11 C7.29330362 17.36132288 4.59719891 22.28695391 -0.9375 25.9375 C-4.34026973 27.11805276 -6.43818244 27.60626682 -10 27 C-13.96248167 24.11819515 -16.07860096 21.00364291 -17.04296875 16.25390625 C-16.93256948 10.46296298 -13.38120907 5.5265995 -9.625 1.375 C-6.13073528 -0.45532914 -3.89009848 -0.56583251 0 0 Z " fill="#0E0E0E" transform="translate(276,416)"/>
<path d="M0 0 C0.99 0.33 1.98 0.66 3 1 C2.47731534 3.76276177 1.89130413 6.3260876 1 9 C2.32 9.33 3.64 9.66 5 10 C4.34 11.65 3.68 13.3 3 15 C1.88625 14.95875 0.7725 14.9175 -0.375 14.875 C-4.04366025 14.58878141 -4.04366025 14.58878141 -6 17 C-6.25005386 20.04182893 -6.25005386 20.04182893 -6 23 C-4.96243008 24.2602065 -4.96243008 24.2602065 -2.6875 24.125 C-0.28967362 24.01347319 1.70894512 23.67883108 4 23 C3.3994243 28.20498938 -0.43895501 31.73428784 -4.3125 34.875 C-8.17099761 36.49018505 -10.82052916 36.40446492 -15 36 C-17 35 -17 35 -18 33 C-19.31145503 25.78699734 -16.34688835 21.8694817 -12.55859375 15.85546875 C-10.5468002 12.16970162 -10.35140726 10.07686864 -11 6 C-9.9275 5.7525 -8.855 5.505 -7.75 5.25 C-4.00350563 4.00116854 -2.47926118 2.97511342 0 0 Z " fill="#0B0B0B" transform="translate(302,57)"/>
<path d="M0 0 C1.13570889 3.40712666 0.94968124 3.75442413 -0.4765625 6.84375 C-0.81518311 7.58971436 -1.15380371 8.33567871 -1.50268555 9.10424805 C-1.87304932 9.89484619 -2.24341309 10.68544434 -2.625 11.5 C-2.9960083 12.3144458 -3.3670166 13.1288916 -3.74926758 13.96801758 C-5.29746905 17.35990968 -6.87507318 20.73656015 -8.47265625 24.10546875 C-22.63372852 54.20343907 -23.71952384 85.40673602 -24 118 C-24.33 118 -24.66 118 -25 118 C-25.33 106.78 -25.66 95.56 -26 84 C-26.66 85.32 -27.32 86.64 -28 88 C-28.88005144 59.66911338 -18.58284689 24.60439676 -3 1 C-2.01 0.67 -1.02 0.34 0 0 Z " fill="#202020" transform="translate(70,148)"/>
<path d="M0 0 C3.20169515 0.35574391 3.99280341 0.99161161 6.15087891 3.50708008 C9.70751492 6.6190604 12.38155246 6.74316644 16.8984375 6.69921875 C17.65162262 6.70637405 18.40480774 6.71352936 19.18081665 6.72090149 C20.76929547 6.72866145 22.35788135 6.7237022 23.94628906 6.70678711 C26.36210198 6.68760243 28.77212169 6.7269102 31.1875 6.77148438 C40.4522485 7.09247332 40.4522485 7.09247332 48.3515625 2.89453125 C49.22554687 1.93933594 50.09953125 0.98414063 51 0 C53.08642578 0.20751953 53.08642578 0.20751953 55 1 C58.73737169 6.27153969 59.45692867 11.71723081 59 18 C58.01 17.67 57.02 17.34 56 17 C56 18.65 56 20.3 56 22 C55.67 22 55.34 22 55 22 C54.34 16.39 53.68 10.78 53 5 C52.07703125 5.97582031 51.1540625 6.95164063 50.203125 7.95703125 C43.8102817 12.7403988 36.01022206 11.85678804 28.38085938 11.72729492 C25.74186158 11.6873769 23.10783849 11.70668782 20.46875 11.73242188 C18.78643889 11.72486778 17.10413884 11.71391937 15.421875 11.69921875 C14.63641296 11.70620285 13.85095093 11.71318695 13.04168701 11.72038269 C9.08406375 11.6180921 7.40408163 11.41751541 4.59863281 8.51879883 C3.80730957 7.27199341 3.80730957 7.27199341 3 6 C2.34 5.67 1.68 5.34 1 5 C0.67 10.28 0.34 15.56 0 21 C-0.66 20.67 -1.32 20.34 -2 20 C-2.66 20.66 -3.32 21.32 -4 22 C-4.738041 6.07061503 -4.738041 6.07061503 0 0 Z " fill="#252525" transform="translate(155,137)"/>
<path d="M0 0 C2.1796875 1.16015625 2.1796875 1.16015625 4 3 C4.609375 5.69921875 4.609375 5.69921875 4.75 8.6875 C4.80671875 9.68136719 4.8634375 10.67523438 4.921875 11.69921875 C4.96054687 12.83810547 4.96054687 12.83810547 5 14 C6.32 14 7.64 14 9 14 C9.66 13.01 10.32 12.02 11 11 C11.66 11 12.32 11 13 11 C12.46505149 17.20540267 11.73141254 22.26858746 7.125 26.875 C4.46537597 28.28303625 2.96546799 28.53226348 0 28 C-2.58033505 25.52410708 -2.98697222 24.15355409 -3.29296875 20.546875 C-3.24076172 18.66742188 -3.24076172 18.66742188 -3.1875 16.75 C-3.14689453 14.85507812 -3.14689453 14.85507812 -3.10546875 12.921875 C-3.07066406 11.95765625 -3.03585937 10.9934375 -3 10 C-3.66 9.67 -4.32 9.34 -5 9 C-5.33 11.31 -5.66 13.62 -6 16 C-6.99 16.33 -7.98 16.66 -9 17 C-8.67 14.03 -8.34 11.06 -8 8 C-8.66 8 -9.32 8 -10 8 C-9.74438677 5.6568787 -9.40729228 3.32156597 -9 1 C-5.94306678 -0.52846661 -3.37015453 -0.23242445 0 0 Z " fill="#0C0C0C" transform="translate(296,410)"/>
<path d="M0 0 C5.94 0 11.88 0 18 0 C18 0.66 18 1.32 18 2 C17.34 2 16.68 2 16 2 C16 5.3 16 8.6 16 12 C18.475 12.495 18.475 12.495 21 13 C21.22179212 16.25295114 21.28601103 18.42797793 19.8125 21.375 C18 23 18 23 15.5 23.5 C13 23 13 23 11.1875 21 C10.795625 20.34 10.40375 19.68 10 19 C9.34 19.66 8.68 20.32 8 21 C6.68 21 5.36 21 4 21 C4 14.73 4 8.46 4 2 C2.68 2 1.36 2 0 2 C0 1.34 0 0.68 0 0 Z " fill="#EAEAEA" transform="translate(188,174)"/>
<path d="M0 0 C-0.33 0.66 -0.66 1.32 -1 2 C-3.17041016 2.37890625 -3.17041016 2.37890625 -6.0390625 2.5625 C-7.08658691 2.63573486 -8.13411133 2.70896973 -9.21337891 2.78442383 C-10.33921387 2.85556396 -11.46504883 2.9267041 -12.625 3 C-14.9376868 3.16802126 -17.25019061 3.33858112 -19.5625 3.51171875 C-20.68140625 3.59470215 -21.8003125 3.67768555 -22.953125 3.76318359 C-38.11099739 4.94131951 -53.41873711 7.83723029 -68.00390625 12.1484375 C-70.84219601 12.95514828 -73.07110703 13.17750866 -76 13 C-74.29107682 9.78038874 -72.59965695 8.65618497 -69.2265625 7.62109375 C-67.69696041 7.21038587 -66.16271467 6.81670588 -64.625 6.4375 C-63.41215332 6.12280762 -63.41215332 6.12280762 -62.17480469 5.80175781 C-60.54254406 5.38188578 -58.90841998 4.96918738 -57.27246094 4.56396484 C-55.31495326 4.07816309 -53.36379926 3.56688804 -51.4140625 3.05078125 C-34.6188438 -1.19986052 -17.18883256 -0.11616491 0 0 Z " fill="#181818" transform="translate(258,42)"/>
<path d="M0 0 C6.33309641 0.60919565 12.4182884 1.61850613 18.625 3 C20.24169753 3.35639658 21.85887993 3.71060152 23.4765625 4.0625 C24.17861816 4.21847656 24.88067383 4.37445313 25.60400391 4.53515625 C31.07834222 5.59722474 36.4565207 6.14309176 42.02734375 6.31640625 C43.31318359 6.35830078 44.59902344 6.40019531 45.92382812 6.44335938 C47.26171625 6.483157 48.59960691 6.52286951 49.9375 6.5625 C51.30274562 6.60576654 52.66798018 6.64938321 54.03320312 6.69335938 C57.35537652 6.79901153 60.67761946 6.90111395 64 7 C64 7.33 64 7.66 64 8 C57.4 8 50.8 8 44 8 C44 8.66 44 9.32 44 10 C56.54 9.67 69.08 9.34 82 9 C77.56117564 11.21941218 74.2330547 11.30535518 69.4140625 11.30078125 C68.56884033 11.30638062 67.72361816 11.31197998 66.8527832 11.31774902 C64.11000849 11.32967631 61.36777431 11.32338426 58.625 11.3125 C57.6933905 11.31067719 56.76178101 11.30885437 55.80194092 11.30697632 C34.98182276 11.23799684 16.00412295 8.84416063 -4 3 C-2.68 2.67 -1.36 2.34 0 2 C0 1.34 0 0.68 0 0 Z " fill="#363636" transform="translate(196,449)"/>
<path d="M0 0 C2.0625 0.4375 2.0625 0.4375 4 1 C5.03026944 7.69675136 5.10152799 14.2314676 5 21 C3.68 21 2.36 21 1 21 C0.67 15.39 0.34 9.78 0 4 C-0.33 9.61 -0.66 15.22 -1 21 C-2.32 21 -3.64 21 -5 21 C-5.33 15.72 -5.66 10.44 -6 5 C-6.33 10.28 -6.66 15.56 -7 21 C-7.99 21 -8.98 21 -10 21 C-10 14.73 -10 8.46 -10 2 C-6.80285048 0.93428349 -4.34084942 1 -1 1 C-0.67 0.67 -0.34 0.34 0 0 Z " fill="#404040" transform="translate(245,175)"/>
<path d="M0 0 C8.3984375 -0.1953125 8.3984375 -0.1953125 11 0 C11.66 0.66 12.32 1.32 13 2 C12.90625 3.98828125 12.90625 3.98828125 12.5 6.3125 C11.9536292 10.2375776 12.28874659 12.37616924 14 16 C14.125 18.8125 14.125 18.8125 14 21 C12.68 20.67 11.36 20.34 10 20 C9.67 17.03 9.34 14.06 9 11 C8.34 11 7.68 11 7 11 C7 14.3 7 17.6 7 21 C5.68 21 4.36 21 3 21 C2.67 18.69 2.34 16.38 2 14 C1.01 14.495 1.01 14.495 0 15 C0 10.05 0 5.1 0 0 Z " fill="#353535" transform="translate(159,175)"/>
<path d="M0 0 C0.33 0 0.66 0 1 0 C1.01458252 0.96486328 1.02916504 1.92972656 1.04418945 2.92382812 C1.32992566 20.52977572 1.7826434 37.88463175 4.37890625 55.33203125 C4.94690087 59.29365429 5.28749532 63.0012015 5 67 C4.01 67.99 4.01 67.99 3 69 C-0.74292228 53.44696339 -2.49903051 38.64252198 -2.4375 22.6875 C-2.43717773 21.8999231 -2.43685547 21.11234619 -2.43652344 20.30090332 C-2.3953277 6.20534158 -2.3953277 6.20534158 0 0 Z " fill="#121212" transform="translate(44,230)"/>
<path d="M0 0 C0 0.99 0 1.98 0 3 C-0.53367188 3.22139648 -1.06734375 3.44279297 -1.6171875 3.67089844 C-4.07936134 4.69431931 -6.53967926 5.72213267 -9 6.75 C-10.25876953 7.27207031 -10.25876953 7.27207031 -11.54296875 7.8046875 C-16.80754066 10.00846179 -21.92826182 12.38482145 -27 15 C-29.10384918 16.06312852 -31.20798548 17.12568917 -33.3125 18.1875 C-34.31925781 18.69667969 -35.32601562 19.20585938 -36.36328125 19.73046875 C-39 21 -39 21 -42 22 C-42 21.34 -42 20.68 -42 20 C-42.66 19.67 -43.32 19.34 -44 19 C-36.66591342 14.39781697 -29.12566991 10.47189303 -21.3125 6.75 C-20.22388672 6.22148438 -19.13527344 5.69296875 -18.01367188 5.1484375 C-3.55516532 -1.77758266 -3.55516532 -1.77758266 0 0 Z " fill="#1C1C1C" transform="translate(184,53)"/>
<path d="M0 0 C0.86455811 -0.0033284 1.72911621 -0.0066568 2.61987305 -0.01008606 C4.44530713 -0.01512864 6.27075036 -0.01749521 8.09619141 -0.01733398 C10.83902932 -0.01950281 13.58145275 -0.0376382 16.32421875 -0.05664062 C24.40365739 -0.0852736 32.46096942 -0.00613112 40.5 0.8671875 C41.66789062 0.99311279 42.83578125 1.11903809 44.0390625 1.2487793 C46.875 2.16796875 46.875 2.16796875 48.7734375 4.74926758 C49.13695312 5.54743896 49.50046875 6.34561035 49.875 7.16796875 C48.83988281 7.03519531 47.80476563 6.90242188 46.73828125 6.765625 C31.82024871 4.97268186 16.88625271 4.54988706 1.875 4.16796875 C1.875 3.83796875 1.875 3.50796875 1.875 3.16796875 C10.29 2.67296875 10.29 2.67296875 18.875 2.16796875 C7.325 2.16796875 -4.225 2.16796875 -16.125 2.16796875 C-16.125 1.83796875 -16.125 1.50796875 -16.125 1.16796875 C-10.71052625 0.26330043 -5.48444511 0.00750113 0 0 Z " fill="#2E2E2E" transform="translate(238.125,40.83203125)"/>
<path d="M0 0 C-2.09452873 3.1417931 -2.53172427 3.47693173 -5.875 4.625 C-6.55304688 4.86476563 -7.23109375 5.10453125 -7.9296875 5.3515625 C-23.7440853 10.30475124 -42.56110233 8.10369028 -59 8 C-59 7.34 -59 6.68 -59 6 C-58.14583496 5.96036133 -57.29166992 5.92072266 -56.41162109 5.87988281 C-40.44171775 5.10399971 -24.86582868 4.09378403 -9.17578125 0.8046875 C-6.06164809 0.15565248 -3.197095 -0.19534185 0 0 Z " fill="#1B1B1B" transform="translate(299,451)"/>
<path d="M0 0 C2 0.1875 2 0.1875 4 1 C7.93521641 6.90282461 7.12430212 14.13576053 7 21 C5.68 20.67 4.36 20.34 3 20 C3 18.02 3 16.04 3 14 C2.01 14 1.02 14 0 14 C0 16.64 0 19.28 0 22 C-0.66 22 -1.32 22 -2 22 C-2.05790353 18.70840684 -2.09356261 15.41694397 -2.125 12.125 C-2.14175781 11.18785156 -2.15851563 10.25070313 -2.17578125 9.28515625 C-2.18544922 7.94130859 -2.18544922 7.94130859 -2.1953125 6.5703125 C-2.20578613 5.74289551 -2.21625977 4.91547852 -2.22705078 4.06298828 C-2 2 -2 2 0 0 Z " fill="#1D1D1D" transform="translate(183,174)"/>
<path d="M0 0 C0.99 0.33 1.98 0.66 3 1 C4.10740962 5.82563528 3.7164701 9.26403377 2.60546875 14.0625 C0.51595813 23.99749299 0.43950997 33.88306158 0.3125 44 C0.27922717 45.85418919 0.24472886 47.70835681 0.20898438 49.5625 C0.12524505 54.04154464 0.05791289 58.52055008 0 63 C-0.33 63 -0.66 63 -1 63 C-1.33 51.78 -1.66 40.56 -2 29 C-2.66 30.32 -3.32 31.64 -4 33 C-4.28144331 25.8231955 -3.19770859 19.06486215 -2 12 C-1.80921875 10.84371094 -1.6184375 9.68742188 -1.421875 8.49609375 C-0.95360579 5.66306504 -0.47950909 2.83114411 0 0 Z " fill="#404040" transform="translate(46,203)"/>
<path d="M0 0 C1.2065625 0.0309375 1.2065625 0.0309375 2.4375 0.0625 C2.4375 0.7225 2.4375 1.3825 2.4375 2.0625 C1.7775 2.0625 1.1175 2.0625 0.4375 2.0625 C0.4375 5.3625 0.4375 8.6625 0.4375 12.0625 C2.0875 12.3925 3.7375 12.7225 5.4375 13.0625 C5.65929212 16.31545114 5.72351103 18.49047793 4.25 21.4375 C2.4375 23.0625 2.4375 23.0625 -0.125 23.5 C-0.929375 23.355625 -1.73375 23.21125 -2.5625 23.0625 C-4.5625 20.0625 -4.5625 20.0625 -4.5625 16.0625 C-3.9025 16.0625 -3.2425 16.0625 -2.5625 16.0625 C-2.2325 17.3825 -1.9025 18.7025 -1.5625 20.0625 C-0.9025 20.0625 -0.2425 20.0625 0.4375 20.0625 C0.7675 18.0825 1.0975 16.1025 1.4375 14.0625 C0.798125 13.918125 0.15875 13.77375 -0.5 13.625 C-2.5625 13.0625 -2.5625 13.0625 -3.5625 12.0625 C-3.66101171 10.23134117 -3.69222629 8.39630067 -3.6875 6.5625 C-3.69007813 5.5621875 -3.69265625 4.561875 -3.6953125 3.53125 C-3.51328024 0.14759147 -3.39949759 0.08291458 0 0 Z " fill="#292929" transform="translate(203.5625,173.9375)"/>
<path d="M0 0 C5.64881625 0.62481263 11.09519335 1.5721139 16.625 2.875 C17.34945313 3.03613281 18.07390625 3.19726562 18.8203125 3.36328125 C23.23490559 4.39495246 26.99827979 5.79084847 31 8 C30.67 8.66 30.34 9.32 30 10 C5.12714777 7.12714777 5.12714777 7.12714777 0 2 C0 1.34 0 0.68 0 0 Z " fill="#161616" transform="translate(286,44)"/>
<path d="M0 0 C3.34071142 5.25918914 2.33344458 11.80034905 2.31567383 17.80883789 C2.3125055 20.05859448 2.33601865 22.30704568 2.36132812 24.55664062 C2.36360046 25.98697751 2.36430492 27.41731793 2.36328125 28.84765625 C2.36775269 30.7968396 2.36775269 30.7968396 2.37231445 32.78540039 C2 36 2 36 0.47729492 37.94702148 C-0.0102124 38.29450439 -0.49771973 38.6419873 -1 39 C-1.02464849 33.60653012 -1.04283531 28.21309275 -1.05493164 22.81958008 C-1.05997231 20.98331125 -1.06680477 19.14704646 -1.07543945 17.31079102 C-1.08751672 14.67723599 -1.09323081 12.04373384 -1.09765625 9.41015625 C-1.10281754 8.58411392 -1.10797882 7.75807159 -1.11329651 6.90699768 C-1.11349205 4.93763632 -1.06204152 2.96838386 -1 1 C-0.67 0.67 -0.34 0.34 0 0 Z " fill="#030303" transform="translate(458,232)"/>
<path d="M0 0 C2.70809186 1.09688217 3.1197037 2.22782641 4.265625 4.87890625 C6.12511378 9.41141014 6.36867721 12.96193838 6.015625 17.81640625 C5.025625 17.48640625 4.035625 17.15640625 3.015625 16.81640625 C3.015625 18.46640625 3.015625 20.11640625 3.015625 21.81640625 C2.685625 21.81640625 2.355625 21.81640625 2.015625 21.81640625 C1.355625 16.20640625 0.695625 10.59640625 0.015625 4.81640625 C-2.954375 7.29140625 -2.954375 7.29140625 -5.984375 9.81640625 C-6.644375 9.81640625 -7.304375 9.81640625 -7.984375 9.81640625 C-7.33826819 6.32742946 -5.96566183 3.74871076 -3.984375 0.81640625 C-1.984375 -0.18359375 -1.984375 -0.18359375 0 0 Z " fill="#292929" transform="translate(207.984375,137.18359375)"/>
<path d="M0 0 C0.33 0 0.66 0 1 0 C1.45411363 6.2440624 0.56137573 11.70492865 -0.875 17.75 C-1.04870117 18.48275146 -1.22240234 19.21550293 -1.40136719 19.97045898 C-3.32069782 27.74090984 -3.32069782 27.74090984 -5 31 C-5.99 31.33 -6.98 31.66 -8 32 C-5.81818182 5.81818182 -5.81818182 5.81818182 0 0 Z " fill="#131313" transform="translate(456,281)"/>
<path d="M0 0 C0.66 0.33 1.32 0.66 2 1 C1.525625 1.433125 1.05125 1.86625 0.5625 2.3125 C-1.23686957 4.02309613 -1.23686957 4.02309613 -2 7 C-13.55 7 -25.1 7 -37 7 C-37 6.34 -37 5.68 -37 5 C-35.98574951 4.95512451 -34.97149902 4.91024902 -33.92651367 4.86401367 C-30.16304838 4.69374681 -26.40070987 4.50484469 -22.63842773 4.31030273 C-21.01009404 4.22871574 -19.38149895 4.1521824 -17.75268555 4.08081055 C-15.41107446 3.97732575 -13.07100578 3.85568667 -10.73046875 3.73046875 C-9.63813179 3.6880732 -9.63813179 3.6880732 -8.52372742 3.64482117 C-4.47202053 3.41494684 -4.47202053 3.41494684 -1.0168457 1.4543457 C-0.68128662 0.97441162 -0.34572754 0.49447754 0 0 Z " fill="#060606" transform="translate(202,140)"/>
<path d="M0 0 C1.67542976 0.28604898 3.34385343 0.61781233 5 1 C4.01 1.495 4.01 1.495 3 2 C3 7.94 3 13.88 3 20 C3.66 20 4.32 20 5 20 C5 20.66 5 21.32 5 22 C3.33388095 22.042721 1.66617115 22.04063832 0 22 C-1.58937556 20.41062444 -1.12981143 18.76100154 -1.1328125 16.5625 C-1.13410156 15.66789063 -1.13539063 14.77328125 -1.13671875 13.8515625 C-1.13091797 12.44003906 -1.13091797 12.44003906 -1.125 11 C-1.12886719 10.05898437 -1.13273438 9.11796875 -1.13671875 8.1484375 C-1.13542969 7.25382813 -1.13414062 6.35921875 -1.1328125 5.4375 C-1.13112061 4.19806641 -1.13112061 4.19806641 -1.12939453 2.93359375 C-1 1 -1 1 0 0 Z " fill="#373737" transform="translate(219,175)"/>
<path d="M0 0 C3.63 0 7.26 0 11 0 C11 0.66 11 1.32 11 2 C9.68 2 8.36 2 7 2 C7.16371094 2.67417969 7.32742187 3.34835938 7.49609375 4.04296875 C8.0875358 7.51367906 8.09539046 10.79322124 8.0625 14.3125 C8.05347656 15.56675781 8.04445312 16.82101563 8.03515625 18.11328125 C8.02355469 19.06589844 8.01195312 20.01851562 8 21 C6.68 21 5.36 21 4 21 C4 14.73 4 8.46 4 2 C2.68 2 1.36 2 0 2 C0 1.34 0 0.68 0 0 Z " fill="#4C4C4C" transform="translate(188,174)"/>
<path d="M0 0 C0.99 0 1.98 0 3 0 C3 5.94 3 11.88 3 18 C3.66 18 4.32 18 5 18 C5.33 12.39 5.66 6.78 6 1 C6.33 1 6.66 1 7 1 C7.05392397 3.77109307 7.09363455 6.54113818 7.125 9.3125 C7.14175781 10.09818359 7.15851563 10.88386719 7.17578125 11.69335938 C7.18222656 12.45068359 7.18867188 13.20800781 7.1953125 13.98828125 C7.20578613 14.68477783 7.21625977 15.38127441 7.22705078 16.09887695 C7 18 7 18 5 21 C3.35 20.67 1.7 20.34 0 20 C0 13.4 0 6.8 0 0 Z " fill="#1E1E1E" transform="translate(154,175)"/>
<path d="M0 0 C2.31 0.33 4.62 0.66 7 1 C7 6.61 7 12.22 7 18 C6.34 17.67 5.68 17.34 5 17 C5 13.37 5 9.74 5 6 C4.67 9.96 4.34 13.92 4 18 C3.34 18 2.68 18 2 18 C0.74326584 15.48653169 0.71024161 13.42571862 0.5 10.625 C0.29406175 7.89631824 0.0936402 5.3610076 -0.59375 2.7109375 C-0.7278125 2.14632812 -0.861875 1.58171875 -1 1 C-0.67 0.67 -0.34 0.34 0 0 Z " fill="#6F6F6F" transform="translate(147,174)"/>
<path d="M0 0 C5.52675903 0.63854985 10.62367351 1.93693354 15.9375 3.5625 C16.71673828 3.79646484 17.49597656 4.03042969 18.29882812 4.27148438 C20.20057187 4.84317421 22.10048226 5.42095691 24 6 C24 6.99 24 7.98 24 9 C18.23963764 9.34017888 13.97276018 8.27046736 8.625 6.1875 C7.90183594 5.92646484 7.17867187 5.66542969 6.43359375 5.39648438 C4.58310954 4.69343925 2.78527898 3.85518608 1 3 C0.67 2.01 0.34 1.02 0 0 Z " fill="#181818" transform="translate(172,442)"/>
<path d="M0 0 C0.33 0 0.66 0 1 0 C1.33 11.88 1.66 23.76 2 36 C2.33 36 2.66 36 3 36 C2.67 40.62 2.34 45.24 2 50 C1.34 49.34 0.68 48.68 0 48 C-0.99 50.475 -0.99 50.475 -2 53 C-2.99489368 49.89062337 -2.95111057 47.98196486 -2.08837891 44.85180664 C-0.90596961 39.98614833 -0.6555373 35.36307426 -0.5859375 30.37109375 C-0.56657135 29.49598648 -0.5472052 28.62087921 -0.5272522 27.71925354 C-0.46807537 24.95876424 -0.42132181 22.19823182 -0.375 19.4375 C-0.33676308 17.55141537 -0.29770815 15.66534714 -0.2578125 13.77929688 C-0.16242582 9.18633308 -0.0781701 4.59328775 0 0 Z " fill="#464646" transform="translate(456,234)"/>
<path d="M0 0 C-1 2 -1 2 -2.62792969 2.61889648 C-5.76116257 3.12229053 -8.77937682 3.11110434 -11.953125 3.09765625 C-12.61334656 3.0962413 -13.27356812 3.09482635 -13.95379639 3.09336853 C-16.05257794 3.08779245 -18.15125095 3.07524447 -20.25 3.0625 C-21.67708179 3.0574819 -23.10416525 3.05291954 -24.53125 3.04882812 C-28.02086832 3.03783088 -31.51042356 3.0205828 -35 3 C-35 2.34 -35 1.68 -35 1 C-30.4981196 0.68927631 -25.99580861 0.38633003 -21.49291992 0.09057617 C-19.96120098 -0.0111275 -18.42962146 -0.11495421 -16.89819336 -0.22094727 C-14.69678431 -0.37294082 -12.4949866 -0.51728964 -10.29296875 -0.66015625 C-9.60849167 -0.70906509 -8.92401459 -0.75797394 -8.21879578 -0.80836487 C-5.11571133 -1.00274223 -2.98570878 -0.99523626 0 0 Z " fill="#030303" transform="translate(275,456)"/>
<path d="M0 0 C1.32 0.66 2.64 1.32 4 2 C4 5.3 4 8.6 4 12 C3.34 12 2.68 12 2 12 C2 15.3 2 18.6 2 22 C0.68 21.34 -0.64 20.68 -2 20 C-1.34 13.4 -0.68 6.8 0 0 Z " fill="#606060" transform="translate(226,175)"/>
<path d="M0 0 C1.12642186 3.37926557 0.96344705 3.72928278 -0.43359375 6.79296875 C-0.75263672 7.50517578 -1.07167969 8.21738281 -1.40039062 8.95117188 C-1.74263672 9.68916016 -2.08488281 10.42714844 -2.4375 11.1875 C-2.77587891 11.93708984 -3.11425781 12.68667969 -3.46289062 13.45898438 C-4.2999411 15.30992698 -5.14885404 17.15549666 -6 19 C-6.66 18.01 -7.32 17.02 -8 16 C-8.66 16.33 -9.32 16.66 -10 17 C-8.26838325 11.21482587 -6.36270315 6.04405472 -3 1 C-2.01 0.67 -1.02 0.34 0 0 Z " fill="#2E2E2E" transform="translate(70,148)"/>
<path d="M0 0 C1.03125 0.25265625 2.0625 0.5053125 3.125 0.765625 C5.94391606 1.73079735 7.75198617 2.82621894 10 4.75 C9.34 5.41 8.68 6.07 8 6.75 C3.02603637 6.33923724 -1.64984882 4.71270703 -6.375 3.1875 C-7.11105469 2.95353516 -7.84710938 2.71957031 -8.60546875 2.47851562 C-10.40481238 1.9059972 -12.20257277 1.32850686 -14 0.75 C-12.66666667 0.41666667 -11.33333333 0.08333333 -10 -0.25 C-9.38125 -0.46140625 -8.7625 -0.6728125 -8.125 -0.890625 C-5.16392828 -1.39139448 -2.89861305 -0.73914633 0 0 Z " fill="#2F2F2F" transform="translate(323,53.25)"/>
<path d="M0 0 C4.66666667 4 9.33333333 8 14 12 C13.34 13.32 12.68 14.64 12 16 C10.20127688 14.59230365 8.41125032 13.17348997 6.625 11.75 C5.62726563 10.96109375 4.62953125 10.1721875 3.6015625 9.359375 C1.26119101 7.23687593 -0.07462586 5.98587389 -1 3 C-0.67 2.01 -0.34 1.02 0 0 Z " fill="#1F1F1F" transform="translate(109,399)"/>
<path d="M0 0 C2.46406408 3.69609611 2.09366678 5.15450483 1.6875 9.5 C1.53861328 11.21703125 1.53861328 11.21703125 1.38671875 12.96875 C1 16 1 16 0 19 C-1.65 18.67 -3.3 18.34 -5 18 C-5 12.72 -5 7.44 -5 2 C-4.34 1.67 -3.68 1.34 -3 1 C-2.67 5.62 -2.34 10.24 -2 15 C-1.34 15 -0.68 15 0 15 C0 10.05 0 5.1 0 0 Z " fill="#101010" transform="translate(151,177)"/>
<path d="M0 0 C0.33 0 0.66 0 1 0 C0.67 10.89 0.34 21.78 0 33 C-0.66 32.67 -1.32 32.34 -2 32 C-2.05828635 27.79172527 -2.093693 23.58355511 -2.125 19.375 C-2.14175781 18.18519531 -2.15851562 16.99539062 -2.17578125 15.76953125 C-2.18222656 14.61582031 -2.18867187 13.46210938 -2.1953125 12.2734375 C-2.20578613 11.21560059 -2.21625977 10.15776367 -2.22705078 9.06787109 C-1.98270857 5.76636112 -1.16882977 3.08587237 0 0 Z " fill="#030303" transform="translate(44,230)"/>
<path d="M0 0 C1.32 0.33 2.64 0.66 4 1 C4 6.61 4 12.22 4 18 C4.66 18 5.32 18 6 18 C6 18.66 6 19.32 6 20 C1.125 19.125 1.125 19.125 0 18 C-0.08631874 16.65732587 -0.10706473 15.31025678 -0.09765625 13.96484375 C-0.09443359 13.15595703 -0.09121094 12.34707031 -0.08789062 11.51367188 C-0.07951172 10.66353516 -0.07113281 9.81339844 -0.0625 8.9375 C-0.05798828 8.08349609 -0.05347656 7.22949219 -0.04882812 6.34960938 C-0.03700373 4.23304337 -0.01906769 2.11651315 0 0 Z " fill="#1E1E1E" transform="translate(174,176)"/>
<path d="M0 0 C1.32 0 2.64 0 4 0 C4 6.27 4 12.54 4 19 C3.67 18.34 3.34 17.68 3 17 C2.34 17 1.68 17 1 17 C-0.18681726 13.43954823 -0.09689832 10.56191663 -0.0625 6.8125 C-0.05347656 5.54019531 -0.04445312 4.26789063 -0.03515625 2.95703125 C-0.02355469 1.98121094 -0.01195312 1.00539062 0 0 Z " fill="#D0D0D0" transform="translate(177,177)"/>
<path d="M0 0 C0.76849965 2.25542675 1.15628879 3.53906176 0.37915039 5.83105469 C0.03875732 6.43852539 -0.30163574 7.04599609 -0.65234375 7.671875 C-1.19858398 8.66767578 -1.19858398 8.66767578 -1.75585938 9.68359375 C-2.14580078 10.36550781 -2.53574219 11.04742187 -2.9375 11.75 C-3.32357422 12.44738281 -3.70964844 13.14476562 -4.10742188 13.86328125 C-5.06073637 15.5816012 -6.02895346 17.29163804 -7 19 C-7.33 18.01 -7.66 17.02 -8 16 C-8.66 15.67 -9.32 15.34 -10 15 C-8.71481447 12.68367725 -7.42228734 10.37203058 -6.125 8.0625 C-5.76019531 7.40314453 -5.39539063 6.74378906 -5.01953125 6.06445312 C-2.2265625 1.11328125 -2.2265625 1.11328125 0 0 Z " fill="#141414" transform="translate(437,341)"/>
<path d="M0 0 C3 1 3 1 4.0625 2.5625 C6.22087258 8.17426872 7.70590358 13.02933747 6 19 C5.34 19.66 4.68 20.32 4 21 C2.92041521 16.75877402 1.86478832 12.51315969 0.875 8.25 C0.70742188 7.53328125 0.53984375 6.8165625 0.3671875 6.078125 C0 4 0 4 0 0 Z " fill="#1A1A1A" transform="translate(449,191)"/>
<path d="M0 0 C0.33 0 0.66 0 1 0 C1.11069824 0.86689453 1.22139648 1.73378906 1.33544922 2.62695312 C1.75288034 5.87779028 2.17459618 9.12801425 2.59912109 12.37792969 C2.78114989 13.77810161 2.96152417 15.17848975 3.14013672 16.57910156 C4.06504584 23.82336182 4.98700771 30.96359451 7 38 C5.02 38.495 5.02 38.495 3 39 C2.3801962 33.2767053 1.88702832 27.55649172 1.5 21.8125 C1.25455868 18.20879808 0.95662868 14.70121983 0.4375 11.125 C-0.08902238 7.36412585 -0.066582 3.79517394 0 0 Z " fill="#494949" transform="translate(46,268)"/>
<path d="M0 0 C0.144375 0.639375 0.28875 1.27875 0.4375 1.9375 C0.81007181 3.97545146 0.81007181 3.97545146 2 5 C1.86369127 10.56768737 1.05123536 15.80353709 -1 21 C-1.99 20.67 -2.98 20.34 -4 20 C-3.42978625 13.04339229 -1.98697306 6.68572695 0 0 Z " fill="#393939" transform="translate(51,185)"/>
<path d="M0 0 C0.66 0 1.32 0 2 0 C2.95946595 4.61965088 2.96102244 8.68129125 2.5625 13.375 C2.46066406 14.62023437 2.35882813 15.86546875 2.25390625 17.1484375 C2.17011719 18.08945313 2.08632812 19.03046875 2 20 C1.01 20 0.02 20 -1 20 C-1.02689449 17.04160645 -1.04678741 14.08345573 -1.0625 11.125 C-1.07087891 10.28324219 -1.07925781 9.44148437 -1.08789062 8.57421875 C-1.09111328 7.76855469 -1.09433594 6.96289062 -1.09765625 6.1328125 C-1.10289307 5.38918457 -1.10812988 4.64555664 -1.11352539 3.87939453 C-1 2 -1 2 0 0 Z " fill="#EFEFEF" transform="translate(223,175)"/>
<path d="M0 0 C1.32 0.33 2.64 0.66 4 1 C3.67 4.63 3.34 8.26 3 12 C2.01 12 1.02 12 0 12 C0 15.3 0 18.6 0 22 C-0.66 22 -1.32 22 -2 22 C-2.05790353 18.70840684 -2.09356261 15.41694397 -2.125 12.125 C-2.14175781 11.18785156 -2.15851563 10.25070313 -2.17578125 9.28515625 C-2.18544922 7.94130859 -2.18544922 7.94130859 -2.1953125 6.5703125 C-2.20578613 5.74289551 -2.21625977 4.91547852 -2.22705078 4.06298828 C-2 2 -2 2 0 0 Z " fill="#2E2E2E" transform="translate(183,174)"/>
<path d="M0 0 C0.99 0 1.98 0 3 0 C3 5.28 3 10.56 3 16 C2.34 15.67 1.68 15.34 1 15 C0.34 15.66 -0.32 16.32 -1 17 C-1.02691685 14.54159395 -1.04679802 12.08348118 -1.0625 9.625 C-1.07087891 8.92632812 -1.07925781 8.22765625 -1.08789062 7.5078125 C-1.11328125 2.2265625 -1.11328125 2.2265625 0 0 Z " fill="#181818" transform="translate(152,142)"/>
<path d="M0 0 C9.24 0 18.48 0 28 0 C27.67 0.66 27.34 1.32 27 2 C22.8761323 2.25401601 18.75114808 2.47400105 14.625 2.6875 C13.449375 2.76033203 12.27375 2.83316406 11.0625 2.90820312 C9.38027344 2.99038086 9.38027344 2.99038086 7.6640625 3.07421875 C6.62717285 3.13182373 5.5902832 3.18942871 4.52197266 3.2487793 C3.68972168 3.16668213 2.8574707 3.08458496 2 3 C1.34 2.01 0.68 1.02 0 0 Z " fill="#060606" transform="translate(230,42)"/>
<path d="M0 0 C0.66 0.33 1.32 0.66 2 1 C1.50628906 1.45890625 1.01257813 1.9178125 0.50390625 2.390625 C-0.13675781 3.00421875 -0.77742188 3.6178125 -1.4375 4.25 C-2.07558594 4.85328125 -2.71367187 5.4565625 -3.37109375 6.078125 C-5.13022765 7.85591353 -5.13022765 7.85591353 -5.46875 10.03125 C-6.2221571 12.82328807 -7.72903745 13.62028012 -10.0625 15.25 C-10.79597656 15.77078125 -11.52945312 16.2915625 -12.28515625 16.828125 C-12.85105469 17.21484375 -13.41695313 17.6015625 -14 18 C-14 13.2731839 -12.46032336 11.09739225 -9.25 7.875 C-6.28620536 5.0924446 -3.25470413 2.4410281 0 0 Z " fill="#1F1F1F" transform="translate(398,394)"/>
<path d="M0 0 C0.66 0.33 1.32 0.66 2 1 C2 1.99 2 2.98 2 4 C0.42274653 4.70133599 -1.16211333 5.385583 -2.75 6.0625 C-3.63171875 6.44535156 -4.5134375 6.82820313 -5.421875 7.22265625 C-8.20671131 8.06232659 -9.29769663 7.84006387 -12 7 C-12.99 7.495 -12.99 7.495 -14 8 C-14.66 7.34 -15.32 6.68 -16 6 C-13.89615302 5.18667257 -11.79191143 4.37436583 -9.6875 3.5625 C-8.51574219 3.11003906 -7.34398437 2.65757813 -6.13671875 2.19140625 C-4.10617185 1.42015245 -2.06062074 0.68687358 0 0 Z " fill="#2B2B2B" transform="translate(182,52)"/>
<path d="M0 0 C1.41750563 0.11509661 2.83401169 0.24253658 4.25 0.375 C5.03890625 0.44460938 5.8278125 0.51421875 6.640625 0.5859375 C9.085877 1.01507113 10.84836903 1.78600638 13 3 C12.34 3 11.68 3 11 3 C11.33 3.99 11.66 4.98 12 6 C6.23716896 6.45496035 1.39431697 4.79099852 -4 3 C-2.68 2.67 -1.36 2.34 0 2 C0 1.34 0 0.68 0 0 Z " fill="#292929" transform="translate(196,449)"/>
<path d="M0 0 C2.03120707 3.04681061 2.24659875 3.60118324 2.1953125 7.01171875 C2.18886719 7.76904297 2.18242187 8.52636719 2.17578125 9.30664062 C2.15902344 10.09232422 2.14226562 10.87800781 2.125 11.6875 C2.11597656 12.48478516 2.10695312 13.28207031 2.09765625 14.10351562 C2.07411585 16.069139 2.03824547 18.03460775 2 20 C1.01 20 0.02 20 -1 20 C-1.02888514 16.85418577 -1.04675923 13.70840531 -1.0625 10.5625 C-1.07087891 9.66466797 -1.07925781 8.76683594 -1.08789062 7.84179688 C-1.09111328 6.98779297 -1.09433594 6.13378906 -1.09765625 5.25390625 C-1.10551147 4.06776733 -1.10551147 4.06776733 -1.11352539 2.85766602 C-1 1 -1 1 0 0 Z " fill="#171717" transform="translate(236,176)"/>
<path d="M0 0 C-0.75 5.75 -0.75 5.75 -3 8 C-3.33 7.01 -3.66 6.02 -4 5 C-5.32 5.33 -6.64 5.66 -8 6 C-8 3.69 -8 1.38 -8 -1 C-4.59745511 -2.2151946 -3.06748874 -1.86240388 0 0 Z " fill="#3C3C3C" transform="translate(172,177)"/>
<path d="M0 0 C0.33 0 0.66 0 1 0 C1.33 5.28 1.66 10.56 2 16 C2.33 16 2.66 16 3 16 C3.08114106 17.77007714 3.13925505 19.54122098 3.1875 21.3125 C3.23970703 22.79169922 3.23970703 22.79169922 3.29296875 24.30078125 C3 27 3 27 0 30 C0 20.1 0 10.2 0 0 Z " fill="#0C0C0C" transform="translate(457,241)"/>
<path d="M0 0 C0.78375 0.04125 1.5675 0.0825 2.375 0.125 C3.0625 2.4375 3.0625 2.4375 3.375 5.125 C2.25 7 2.25 7 0.375 8.125 C-2.3125 7.8125 -2.3125 7.8125 -4.625 7.125 C-4.75 4.75 -4.75 4.75 -4.625 2.125 C-2.625 0.125 -2.625 0.125 0 0 Z " fill="#F1F1F1" transform="translate(262.625,69.875)"/>
<path d="M0 0 C2.625 0.375 2.625 0.375 5 1 C5.625 3.375 5.625 3.375 6 6 C5.34 6.66 4.68 7.32 4 8 C1.375 7.625 1.375 7.625 -1 7 C-1.625 4.625 -1.625 4.625 -2 2 C-1.34 1.34 -0.68 0.68 0 0 Z " fill="#1F1F1F" transform="translate(307,203)"/>
<path d="M0 0 C0.99 0 1.98 0 3 0 C3 5.61 3 11.22 3 17 C2.01 17 1.02 17 0 17 C0 11.39 0 5.78 0 0 Z " fill="#1B1B1B" transform="translate(241,179)"/>
<path d="M0 0 C2.475 0.495 2.475 0.495 5 1 C5 6.94 5 12.88 5 19 C4.34 19 3.68 19 3 19 C2.80083984 17.31970703 2.80083984 17.31970703 2.59765625 15.60546875 C2.41943431 14.13279271 2.24103989 12.66013753 2.0625 11.1875 C1.97548828 10.44951172 1.88847656 9.71152344 1.79882812 8.95117188 C1.41783454 5.83266879 0.99630626 2.98891878 0 0 Z " fill="#C7C7C7" transform="translate(187,175)"/>
<path d="M0 0 C0 1.32 0 2.64 0 4 C-6.93 5.485 -6.93 5.485 -14 7 C-12.74458443 4.48916886 -11.49936512 4.12874554 -9 3 C-9.33 2.34 -9.66 1.68 -10 1 C-6.61981469 -0.04005702 -3.5219721 -0.08004482 0 0 Z " fill="#2C2C2C" transform="translate(307,449)"/>
<path d="M0 0 C1.32 0.66 2.64 1.32 4 2 C3.67 3.98 3.34 5.96 3 8 C1.125 8.625 1.125 8.625 -1 9 C-1.66 8.34 -2.32 7.68 -3 7 C-2.67028521 3.70285207 -2.3773161 2.3773161 0 0 Z " fill="#E0E0E0" transform="translate(323,411)"/>
<path d="M0 0 C-0.33 2.31 -0.66 4.62 -1 7 C-2.65 7.33 -4.3 7.66 -6 8 C-6.66 6.68 -7.32 5.36 -8 4 C-2.25 0 -2.25 0 0 0 Z " fill="#EEEEEE" transform="translate(320,79)"/>
<path d="M0 0 C2.625 0.375 2.625 0.375 5 1 C4.67 2.65 4.34 4.3 4 6 C2.35 6.33 0.7 6.66 -1 7 C-1.625 4.625 -1.625 4.625 -2 2 C-1.34 1.34 -0.68 0.68 0 0 Z " fill="#F1F1F1" transform="translate(195,419)"/>
<path d="M0 0 C0.33 0 0.66 0 1 0 C1 5.61 1 11.22 1 17 C-3.17021277 10.74468085 -3.17021277 10.74468085 -2.75 6.4375 C-2.03767708 4.12245052 -1.17457901 2.11424222 0 0 Z " fill="#D8D8D8" transform="translate(173,177)"/>
<path d="M0 0 C0.66 0.33 1.32 0.66 2 1 C-0.98127544 6.12779375 -4.03353764 8.75269769 -9 12 C-8.67 10.68 -8.34 9.36 -8 8 C-7.34 8 -6.68 8 -6 8 C-5.7525 7.236875 -5.505 6.47375 -5.25 5.6875 C-3.89004442 2.7635955 -2.68414174 1.69995644 0 0 Z " fill="#131313" transform="translate(384,407)"/>
<path d="M0 0 C-1.450954 3.82524236 -3.38181932 5.19090966 -7 7 C-7.66 7 -8.32 7 -9 7 C-9 6.34 -9 5.68 -9 5 C-9.66 4.67 -10.32 4.34 -11 4 C-9.73760288 3.13341385 -8.46472499 2.28207941 -7.1875 1.4375 C-6.47980469 0.96183594 -5.77210938 0.48617187 -5.04296875 -0.00390625 C-3 -1 -3 -1 0 0 Z " fill="#2A2A2A" transform="translate(151,68)"/>
<path d="M0 0 C0.33 0 0.66 0 1 0 C2.12862175 5.36095333 2.09688221 10.55306686 2 16 C1.01 16 0.02 16 -1 16 C-1.09688221 10.55306686 -1.12862175 5.36095333 0 0 Z " fill="#090909" transform="translate(193,178)"/>
<path d="M0 0 C0.99 0 1.98 0 3 0 C2.8125 2.8125 2.8125 2.8125 2 6 C-0.5 7.75 -0.5 7.75 -3 9 C-3.33 9.66 -3.66 10.32 -4 11 C-4.66 10.67 -5.32 10.34 -6 10 C-5.07615834 8.32572385 -4.13549431 6.66071997 -3.1875 5 C-2.66542969 4.071875 -2.14335937 3.14375 -1.60546875 2.1875 C-0.81076172 1.1046875 -0.81076172 1.1046875 0 0 Z " fill="#232323" transform="translate(426,357)"/>
<path d="M0 0 C1 2 1 2 0.22265625 4.6015625 C-0.16019531 5.59929687 -0.54304688 6.59703125 -0.9375 7.625 C-1.31777344 8.62789063 -1.69804687 9.63078125 -2.08984375 10.6640625 C-2.39019531 11.43492187 -2.69054687 12.20578125 -3 13 C-4.51953125 11.69921875 -4.51953125 11.69921875 -6 10 C-5.6875 6.8125 -5.6875 6.8125 -5 4 C-3.02 4.495 -3.02 4.495 -1 5 C-0.67 3.35 -0.34 1.7 0 0 Z " fill="#383838" transform="translate(452,307)"/>
<path d="M0 0 C4.05606165 0.46800711 7.46588679 0.87953208 11 3 C10.67 3.66 10.34 4.32 10 5 C7.03 4.67 4.06 4.34 1 4 C0.67 2.68 0.34 1.36 0 0 Z " fill="#141414" transform="translate(306,49)"/>
<path d="M0 0 C-0.625 1.9375 -0.625 1.9375 -2 4 C-5.125 4.75 -5.125 4.75 -8 5 C-8 4.34 -8 3.68 -8 3 C-8.66 2.34 -9.32 1.68 -10 1 C-3.71428571 -1.42857143 -3.71428571 -1.42857143 0 0 Z " fill="#2E2E2E" transform="translate(335,440)"/>
<path d="M0 0 C2.31 1.65 4.62 3.3 7 5 C6.01 5.495 6.01 5.495 5 6 C5 6.66 5 7.32 5 8 C2.11562221 6.70700306 0.12780579 5.34058637 -2 3 C-1.34 2.01 -0.68 1.02 0 0 Z " fill="#222222" transform="translate(369,77)"/>
<path d="M0 0 C-1 2 -1 2 -2.625 2.625 C-5.7660575 3.12095645 -8.82601831 3.06103811 -12 3 C-11.67 2.01 -11.34 1.02 -11 0 C-3.375 -1.125 -3.375 -1.125 0 0 Z " fill="#0A0A0A" transform="translate(275,456)"/>
<path d="M0 0 C0.99 0.33 1.98 0.66 3 1 C3.92844389 5.33273814 3.92844389 8.66726186 3 13 C2.67 13 2.34 13 2 13 C1.67 11.02 1.34 9.04 1 7 C0.34 7.66 -0.32 8.32 -1 9 C-0.67 6.03 -0.34 3.06 0 0 Z " fill="#414141" transform="translate(46,203)"/>
<path d="M0 0 C0.66 0.33 1.32 0.66 2 1 C2 2.98 2 4.96 2 7 C0.35 7 -1.3 7 -3 7 C-3 5.02 -3 3.04 -3 1 C-2.01 0.67 -1.02 0.34 0 0 Z " fill="#DEDEDE" transform="translate(144,174)"/>
<path d="M0 0 C-0.1875 1.8125 -0.1875 1.8125 -1 4 C-3.375 5.8125 -3.375 5.8125 -6 7 C-6.99 6.67 -7.98 6.34 -9 6 C-4.5 0 -4.5 0 0 0 Z " fill="#101010" transform="translate(142,73)"/>
<path d="M0 0 C-0.33 1.32 -0.66 2.64 -1 4 C-3.31 4.66 -5.62 5.32 -8 6 C-7.75 3.625 -7.75 3.625 -7 1 C-4.12732844 -1.10662581 -3.46720491 -1.15573497 0 0 Z " fill="#202020" transform="translate(157,65)"/>
<path d="M0 0 C0.66 0.33 1.32 0.66 2 1 C2 3.97 2 6.94 2 10 C1.01 10 0.02 10 -1 10 C-1.02689216 8.52093108 -1.04634621 7.04172517 -1.0625 5.5625 C-1.07410156 4.73878906 -1.08570313 3.91507813 -1.09765625 3.06640625 C-1 1 -1 1 0 0 Z " fill="#C0C0C0" transform="translate(184,176)"/>
<path d="M0 0 C-1.55500981 3.81684226 -4.03595495 6.19195732 -7 9 C-7 8.34 -7 7.68 -7 7 C-7.66 6.67 -8.32 6.34 -9 6 C-7.8803014 4.99406757 -6.7540588 3.9954151 -5.625 3 C-4.68527344 2.1646875 -4.68527344 2.1646875 -3.7265625 1.3125 C-2 0 -2 0 0 0 Z " fill="#131313" transform="translate(99,110)"/>
<path d="M0 0 C2.0625 0.4375 2.0625 0.4375 4 1 C3.67 2.32 3.34 3.64 3 5 C1.68 5 0.36 5 -1 5 C-1 1 -1 1 0 0 Z " fill="#A0A0A0" transform="translate(296,205)"/>
<path d="M0 0 C0.33 0.99 0.66 1.98 1 3 C-1.31 5.31 -3.62 7.62 -6 10 C-6.66 9.34 -7.32 8.68 -8 8 C-5.36 5.36 -2.72 2.72 0 0 Z " fill="#0F0F0F" transform="translate(400,394)"/>
<path d="M0 0 C-3.32307692 3.93846154 -3.32307692 3.93846154 -6.75 4.25 C-7.4925 4.1675 -8.235 4.085 -9 4 C-6.3515138 0.02727069 -4.69305063 -1.56435021 0 0 Z " fill="#0B0B0B" transform="translate(328,443)"/>
<path d="M0 0 C0.33 0 0.66 0 1 0 C1 3.96 1 7.92 1 12 C0.67 12 0.34 12 0 12 C-0.33 10.02 -0.66 8.04 -1 6 C-1.66 6.99 -2.32 7.98 -3 9 C-2.5020163 5.26512223 -2.12508244 3.18762365 0 0 Z " fill="#292929" transform="translate(47,209)"/>
<path d="M0 0 C2.97 0.495 2.97 0.495 6 1 C5.67 2.32 5.34 3.64 5 5 C2.36 4.67 -0.28 4.34 -3 4 C-1.68 3.67 -0.36 3.34 1 3 C0.67 2.01 0.34 1.02 0 0 Z " fill="#393939" transform="translate(302,47)"/>
<path d="M0 0 C1.32 0 2.64 0 4 0 C3.67 1.65 3.34 3.3 3 5 C1.68 4.67 0.36 4.34 -1 4 C-0.67 2.68 -0.34 1.36 0 0 Z " fill="#ECECEC" transform="translate(269,422)"/>
<path d="M0 0 C3.625 -0.1875 3.625 -0.1875 7 0 C6.67 0.99 6.34 1.98 6 3 C3.36 3 0.72 3 -2 3 C-1.34 2.01 -0.68 1.02 0 0 Z " fill="#121212" transform="translate(226,43)"/>
<path d="M0 0 C0.96516243 3.00272755 1.22393475 5.04215769 0 8 C-0.99 8.33 -1.98 8.66 -3 9 C-2.25 2.25 -2.25 2.25 0 0 Z " fill="#060606" transform="translate(451,304)"/>
<path d="M0 0 C0.33 0 0.66 0 1 0 C1 3.96 1 7.92 1 12 C0.67 12 0.34 12 0 12 C-0.144375 11.236875 -0.28875 10.47375 -0.4375 9.6875 C-0.9632594 6.91827092 -0.9632594 6.91827092 -2 4 C-1.0625 1.8125 -1.0625 1.8125 0 0 Z " fill="#0F0F0F" transform="translate(46,214)"/>
<path d="M0 0 C0.66 0 1.32 0 2 0 C2.0825 0.61875 2.165 1.2375 2.25 1.875 C2.81258459 4.18437567 2.81258459 4.18437567 5.0625 5.25 C5.701875 5.4975 6.34125 5.745 7 6 C7 6.33 7 6.66 7 7 C4.625 7.1875 4.625 7.1875 2 7 C0 4 0 4 0 0 Z " fill="#3F3F3F" transform="translate(199,190)"/>
<path d="M0 0 C0.99 0.33 1.98 0.66 3 1 C2.21625 1.53625 1.4325 2.0725 0.625 2.625 C-2.33426299 5.30242842 -3.04608256 7.18433025 -4 11 C-4.6875 9.375 -4.6875 9.375 -5 7 C-2.66666667 1.33333333 -2.66666667 1.33333333 0 0 Z " fill="#4C4C4C" transform="translate(105,141)"/>
<path d="M0 0 C0.99 0.33 1.98 0.66 3 1 C2.34 2.32 1.68 3.64 1 5 C0.34 5 -0.32 5 -1 5 C-1.99 5.66 -2.98 6.32 -4 7 C-2.92598892 4.08482708 -2.22189824 2.22189824 0 0 Z " fill="#232323" transform="translate(82,126)"/>
<path d="M0 0 C1.32 0 2.64 0 4 0 C3.67 2.31 3.34 4.62 3 7 C2.34 6.34 1.68 5.68 1 5 C0.01 5.495 0.01 5.495 -1 6 C-0.67 4.02 -0.34 2.04 0 0 Z " fill="#242424" transform="translate(450,300)"/>
<path d="M0 0 C0.33 0 0.66 0 1 0 C0.67 2.97 0.34 5.94 0 9 C-0.99 8.67 -1.98 8.34 -3 8 C-1.125 1.125 -1.125 1.125 0 0 Z " fill="#070707" transform="translate(50,197)"/>
<path d="M0 0 C1.32 0 2.64 0 4 0 C3.67 1.65 3.34 3.3 3 5 C2.01 5 1.02 5 0 5 C0 3.35 0 1.7 0 0 Z " fill="#DCDCDC" transform="translate(165,177)"/>
<path d="M0 0 C0 0.66 0 1.32 0 2 C-2.64 2 -5.28 2 -8 2 C-8 1.34 -8 0.68 -8 0 C-4.71303767 -0.79953138 -3.28976808 -1.09658936 0 0 Z " fill="#EDEDED" transform="translate(276,431)"/>
<path d="M0 0 C2.475 0.99 2.475 0.99 5 2 C4.01 3.485 4.01 3.485 3 5 C0.525 4.01 0.525 4.01 -2 3 C-1.34 2.01 -0.68 1.02 0 0 Z " fill="#232323" transform="translate(141,425)"/>
<path d="M0 0 C0.33 0 0.66 0 1 0 C0.67 2.64 0.34 5.28 0 8 C-0.99 7.67 -1.98 7.34 -3 7 C-1.125 1.125 -1.125 1.125 0 0 Z " fill="#0C0C0C" transform="translate(54,184)"/>
<path d="M0 0 C0.33 0.99 0.66 1.98 1 3 C-0.98 3.99 -2.96 4.98 -5 6 C-5.33 5.01 -5.66 4.02 -6 3 C-4.02 2.01 -2.04 1.02 0 0 Z " fill="#090909" transform="translate(171,57)"/>
<path d="M0 0 C1.42944945 2.35438733 2.08661261 3.48032433 1.625 6.25 C1.41875 6.8275 1.2125 7.405 1 8 C0.01 7.67 -0.98 7.34 -2 7 C-1.34 4.69 -0.68 2.38 0 0 Z " fill="#343434" transform="translate(441,327)"/>
<path d="M0 0 C0.66 0.33 1.32 0.66 2 1 C1.2575 1.6496875 1.2575 1.6496875 0.5 2.3125 C-1.33218192 3.99740483 -1.33218192 3.99740483 -1 7 C-1.99 6.67 -2.98 6.34 -4 6 C-3.6875 4.125 -3.6875 4.125 -3 2 C-2.01 1.34 -1.02 0.68 0 0 Z " fill="#282828" transform="translate(135,75)"/>
</svg>
